<svg id="Layer_5" data-name="Layer 5" xmlns="http://www.w3.org/2000/svg" viewBox="0 0 500 500"><defs><style>.cls-1,.cls-2,.cls-3{fill:#fff;}.cls-1{opacity:0.25;}.cls-2{fill-rule:evenodd;}</style></defs><title>icos sm custome kreis</title><circle class="cls-1" cx="250" cy="250" r="225"/><path class="cls-2" d="M280.58,185.33c6.1-.22,12.2-.06,18.32-.06h2.52V153.51c-3.26-.31-6.67-.79-10.08-1-6.26-.28-12.53-.59-18.8-.44-9.57.2-18.62,2.53-26.53,8.19-9.06,6.53-14,15.69-15.94,26.5A92.71,92.71,0,0,0,229,200.43c-.17,7.13,0,14.24,0,21.37v2.68H198.57v35.46h30.19v89.13h36.9v-89h30.1c1.54-11.8,3.05-23.48,4.63-35.63-2.42,0-4.59,0-6.76,0-8.56,0-28.21,0-28.21,0s.08-17.58.29-25.2C266,188.81,272.21,185.62,280.58,185.33Z"/><path class="cls-3" d="M425,250a174.22,174.22,0,0,1-34.84,104.8l35.63,35.63a225,225,0,0,0,0-280.87l-35.63,35.63A174.22,174.22,0,0,1,425,250Z"/><path class="cls-3" d="M354.8,109.84l35.63-35.63A223.91,223.91,0,0,0,275,26.39v50.4A174.1,174.1,0,0,1,354.8,109.84Z"/><path class="cls-3" d="M225,76.79V26.39A223.91,223.91,0,0,0,109.57,74.21l35.63,35.63A174.1,174.1,0,0,1,225,76.79Z"/><path class="cls-3" d="M75,250a174.22,174.22,0,0,1,34.84-104.8L74.21,109.57a225,225,0,0,0,0,280.87l35.63-35.63A174.22,174.22,0,0,1,75,250Z"/><path class="cls-3" d="M145.2,390.16l-35.63,35.63A223.91,223.91,0,0,0,225,473.61v-50.4A174.1,174.1,0,0,1,145.2,390.16Z"/><path class="cls-3" d="M275,423.21v50.4a223.91,223.91,0,0,0,115.43-47.82L354.8,390.16A174.1,174.1,0,0,1,275,423.21Z"/><circle class="cls-1" cx="250" cy="250" r="225"/></svg>