<svg id="Layer_5" data-name="Layer 5" xmlns="http://www.w3.org/2000/svg" viewBox="0 0 500 500"><defs><style>.cls-1,.cls-2,.cls-3{fill:#fff;}.cls-1{fill-rule:evenodd;}.cls-3{opacity:0.25;}</style></defs><title>icos sm custome kreis</title><path class="cls-1" d="M174.21,313a22.19,22.19,0,0,1-14.65-14.22c-6.35-17.45-8.22-90.43,4-104.8a23.63,23.63,0,0,1,15.94-8.48c32.92-3.54,134.64-3,146.36,1.19a23,23,0,0,1,14.4,13.84c6.95,18,7.18,83.65-.91,101A22.27,22.27,0,0,1,329,311.93C316.74,318.38,190.36,318.29,174.21,313Zm52.29-34.2L285.78,248l-59.28-30.94Z"/><path class="cls-2" d="M425,250a174.22,174.22,0,0,1-34.84,104.8l35.63,35.63a225,225,0,0,0,0-280.87l-35.63,35.63A174.22,174.22,0,0,1,425,250Z"/><path class="cls-2" d="M354.8,109.84l35.63-35.63A223.91,223.91,0,0,0,275,26.39v50.4A174.1,174.1,0,0,1,354.8,109.84Z"/><path class="cls-2" d="M225,76.79V26.39A223.91,223.91,0,0,0,109.57,74.21l35.63,35.63A174.1,174.1,0,0,1,225,76.79Z"/><path class="cls-2" d="M75,250a174.22,174.22,0,0,1,34.84-104.8L74.21,109.57a225,225,0,0,0,0,280.87l35.63-35.63A174.22,174.22,0,0,1,75,250Z"/><path class="cls-2" d="M145.2,390.16l-35.63,35.63A223.91,223.91,0,0,0,225,473.61v-50.4A174.1,174.1,0,0,1,145.2,390.16Z"/><path class="cls-2" d="M275,423.21v50.4a223.91,223.91,0,0,0,115.43-47.82L354.8,390.16A174.1,174.1,0,0,1,275,423.21Z"/><circle class="cls-3" cx="250" cy="250" r="225"/></svg>