<svg id="Layer_5" data-name="Layer 5" xmlns="http://www.w3.org/2000/svg" viewBox="0 0 500 500"><defs><style>.cls-1,.cls-2{fill:#fff;}.cls-2{opacity:0.25;}</style></defs><title>icos sm custome kreis</title><path class="cls-1" d="M200.29,361.07a1.72,1.72,0,0,0,3.08.75c1.27-1.67,17.74-22,23.33-42.29,1.58-5.76,9.08-35.54,9.08-35.54,4.5,8.58,17.62,16.11,31.58,16.11,41.54,0,69.72-37.87,69.72-88.56,0-38.33-32.47-74-81.82-74-61.39,0-92.36,44-92.36,80.74,0,22.22,8.42,42,26.45,49.36,3,1.22,5.62,0,6.47-3.22.6-2.27,2-8,2.65-10.39.85-3.24.53-4.36-1.86-7.19-5.21-6.14-8.54-14.09-8.54-25.36,0-32.65,24.45-61.89,63.63-61.89,34.7,0,53.77,21.21,53.77,49.52,0,37.26-16.49,68.71-41,68.71-13.53,0-23.66-11.18-20.42-24.9,3.9-16.36,11.43-34,11.43-45.85,0-10.58-5.68-19.41-17.43-19.41-13.83,0-24.93,14.31-24.93,33.46a49.6,49.6,0,0,0,4.13,20.45S203.16,301.47,200.69,312C195.75,332.88,199.94,358.49,200.29,361.07Z"/><path class="cls-1" d="M425,250a174.22,174.22,0,0,1-34.84,104.8l35.63,35.63a225,225,0,0,0,0-280.87l-35.63,35.63A174.22,174.22,0,0,1,425,250Z"/><path class="cls-1" d="M354.8,109.84l35.63-35.63A223.91,223.91,0,0,0,275,26.39v50.4A174.1,174.1,0,0,1,354.8,109.84Z"/><path class="cls-1" d="M225,76.79V26.39A223.91,223.91,0,0,0,109.57,74.21l35.63,35.63A174.1,174.1,0,0,1,225,76.79Z"/><path class="cls-1" d="M75,250a174.22,174.22,0,0,1,34.84-104.8L74.21,109.57a225,225,0,0,0,0,280.87l35.63-35.63A174.22,174.22,0,0,1,75,250Z"/><path class="cls-1" d="M145.2,390.16l-35.63,35.63A223.91,223.91,0,0,0,225,473.61v-50.4A174.1,174.1,0,0,1,145.2,390.16Z"/><path class="cls-1" d="M275,423.21v50.4a223.91,223.91,0,0,0,115.43-47.82L354.8,390.16A174.1,174.1,0,0,1,275,423.21Z"/><circle class="cls-2" cx="250" cy="250" r="225"/></svg>