<svg id="Layer_5" data-name="Layer 5" xmlns="http://www.w3.org/2000/svg" viewBox="0 0 500 500"><defs><style>.cls-1,.cls-2{fill:#fff;}.cls-2{opacity:0.25;}</style></defs><title>icos sm custome kreis</title><path class="cls-1" d="M218.73,236.48c0,.46-.07.86-.07,1.23,0,9.47,0,30,0,30h41.55c0,3.08-3.65,15.47-15.26,23.35a44.39,44.39,0,0,1-22.55,7.24,45.21,45.21,0,0,1-16.84-2,46.74,46.74,0,0,1-32-40.34,44.73,44.73,0,0,1,.94-14.08c5.15-22.58,26.55-39.33,51.05-35.72,10.86,1.61,17.11,6.12,22.81,11,7.5-7.51,14.94-14.94,22.57-22.6-1.86-1.34-6.14-5.7-13.75-10.1a74,74,0,0,0-36.81-10c-2.48,0-5,.13-7.42.24a61.55,61.55,0,0,0-12.79,2,77.78,77.78,0,0,0-58.8,70.91A73.49,73.49,0,0,0,143,268.46a76.69,76.69,0,0,0,30.36,46.39,75.73,75.73,0,0,0,41.44,14.68A82.77,82.77,0,0,0,240.25,327c15.55-4.07,28.46-12.19,38.17-25.11,14.07-18.69,17.46-42.67,13.31-65.43Z"/><polygon class="cls-1" points="385.6 237.49 359.31 237.49 359.31 211.19 359.31 210.42 358.53 210.42 338.9 210.42 338.11 210.42 338.11 211.19 338.11 237.49 311.81 237.49 311.05 237.49 311.05 238.26 311.05 257.89 311.05 258.67 311.81 258.67 338.11 258.67 338.11 284.99 338.11 285.76 338.9 285.76 358.53 285.76 359.31 285.76 359.31 284.99 359.31 258.67 385.6 258.67 386.38 258.67 386.38 257.89 386.38 238.26 386.38 237.49 385.6 237.49"/><path class="cls-1" d="M425,250a174.22,174.22,0,0,1-34.84,104.8l35.63,35.63a225,225,0,0,0,0-280.87l-35.63,35.63A174.22,174.22,0,0,1,425,250Z"/><path class="cls-1" d="M354.8,109.84l35.63-35.63A223.91,223.91,0,0,0,275,26.39v50.4A174.1,174.1,0,0,1,354.8,109.84Z"/><path class="cls-1" d="M225,76.79V26.39A223.91,223.91,0,0,0,109.57,74.21l35.63,35.63A174.1,174.1,0,0,1,225,76.79Z"/><path class="cls-1" d="M75,250a174.22,174.22,0,0,1,34.84-104.8L74.21,109.57a225,225,0,0,0,0,280.87l35.63-35.63A174.22,174.22,0,0,1,75,250Z"/><path class="cls-1" d="M145.2,390.16l-35.63,35.63A223.91,223.91,0,0,0,225,473.61v-50.4A174.1,174.1,0,0,1,145.2,390.16Z"/><path class="cls-1" d="M275,423.21v50.4a223.91,223.91,0,0,0,115.43-47.82L354.8,390.16A174.1,174.1,0,0,1,275,423.21Z"/><circle class="cls-2" cx="250" cy="250" r="225"/></svg>