<svg id="Layer_5" data-name="Layer 5" xmlns="http://www.w3.org/2000/svg" viewBox="0 0 500 500"><defs><style>.cls-1,.cls-2{fill:#fff;}.cls-2{opacity:0.25;}</style></defs><title>icos sm custome kreis</title><path class="cls-1" d="M179.54,215.7h37V334.64h-37Zm18.52-59.12A21.44,21.44,0,1,1,176.61,178a21.46,21.46,0,0,1,21.45-21.42"/><path class="cls-1" d="M239.77,215.7h35.46V232h.49c4.94-9.35,17-19.21,35-19.21,37.43,0,44.34,24.61,44.34,56.65v65.25H318.12V276.82c0-13.8-.27-31.54-19.22-31.54-19.25,0-22.19,15-22.19,30.52v58.85H239.77Z"/><path class="cls-1" d="M425,250a174.22,174.22,0,0,1-34.84,104.8l35.63,35.63a225,225,0,0,0,0-280.87l-35.63,35.63A174.22,174.22,0,0,1,425,250Z"/><path class="cls-1" d="M354.8,109.84l35.63-35.63A223.91,223.91,0,0,0,275,26.39v50.4A174.1,174.1,0,0,1,354.8,109.84Z"/><path class="cls-1" d="M225,76.79V26.39A223.91,223.91,0,0,0,109.57,74.21l35.63,35.63A174.1,174.1,0,0,1,225,76.79Z"/><path class="cls-1" d="M75,250a174.22,174.22,0,0,1,34.84-104.8L74.21,109.57a225,225,0,0,0,0,280.87l35.63-35.63A174.22,174.22,0,0,1,75,250Z"/><path class="cls-1" d="M145.2,390.16l-35.63,35.63A223.91,223.91,0,0,0,225,473.61v-50.4A174.1,174.1,0,0,1,145.2,390.16Z"/><path class="cls-1" d="M275,423.21v50.4a223.91,223.91,0,0,0,115.43-47.82L354.8,390.16A174.1,174.1,0,0,1,275,423.21Z"/><circle class="cls-2" cx="250" cy="250" r="225"/></svg>