<svg id="Layer_5" data-name="Layer 5" xmlns="http://www.w3.org/2000/svg" viewBox="0 0 500 500"><defs><style>.cls-1,.cls-2,.cls-3{fill:#fff;}.cls-1{fill-rule:evenodd;}.cls-3{opacity:0.25;}</style></defs><title>icos sm custome kreis</title><path class="cls-1" d="M216.67,298.81C194,298,179.84,281.75,176.1,268.53a43.14,43.14,0,0,0,18.69-.55,4,4,0,0,0,.63-.29c-12.28-2.86-21.76-9.42-28.33-20a42.4,42.4,0,0,1-6.39-23.18,43.19,43.19,0,0,0,19.41,5.28c-9.23-6.65-15.42-15.34-18-26.46a43.15,43.15,0,0,1,4.68-31.58c23.61,27.8,53.5,43.07,90,45.58-.25-1.74-.52-3.24-.7-4.78A42.24,42.24,0,0,1,262.47,184c6.93-10.89,16.84-17.65,29.57-19.72,14.67-2.4,27.47,1.78,38.19,12.17a2.21,2.21,0,0,0,2.32.7,88.32,88.32,0,0,0,25.38-9.77,5.52,5.52,0,0,1,.58-.29.87.87,0,0,1,.29,0,44.63,44.63,0,0,1-18.68,23.73,84,84,0,0,0,24.29-6.54l.17.2c-1.67,2.18-3.28,4.42-5,6.54a85.71,85.71,0,0,1-15.85,15.06,1.46,1.46,0,0,0-.72,1.38,120.76,120.76,0,0,1-.81,19.35,128.35,128.35,0,0,1-11.24,38.84A125.23,125.23,0,0,1,307.36,300a116.64,116.64,0,0,1-59.94,33.41,130.37,130.37,0,0,1-24.29,2.88,123.21,123.21,0,0,1-69.79-18.73c-.28-.17-.55-.35-1-.66a88.31,88.31,0,0,0,43.63-6A87.22,87.22,0,0,0,216.67,298.81Z"/><path class="cls-2" d="M425,250a174.22,174.22,0,0,1-34.84,104.8l35.63,35.63a225,225,0,0,0,0-280.87l-35.63,35.63A174.22,174.22,0,0,1,425,250Z"/><path class="cls-2" d="M354.8,109.84l35.63-35.63A223.91,223.91,0,0,0,275,26.39v50.4A174.1,174.1,0,0,1,354.8,109.84Z"/><path class="cls-2" d="M225,76.79V26.39A223.91,223.91,0,0,0,109.57,74.21l35.63,35.63A174.1,174.1,0,0,1,225,76.79Z"/><path class="cls-2" d="M75,250a174.22,174.22,0,0,1,34.84-104.8L74.21,109.57a225,225,0,0,0,0,280.87l35.63-35.63A174.22,174.22,0,0,1,75,250Z"/><path class="cls-2" d="M145.2,390.16l-35.63,35.63A223.91,223.91,0,0,0,225,473.61v-50.4A174.1,174.1,0,0,1,145.2,390.16Z"/><path class="cls-2" d="M275,423.21v50.4a223.91,223.91,0,0,0,115.43-47.82L354.8,390.16A174.1,174.1,0,0,1,275,423.21Z"/><circle class="cls-3" cx="250" cy="250" r="225"/></svg>