<svg id="Layer_5" data-name="Layer 5" xmlns="http://www.w3.org/2000/svg" viewBox="0 0 500 500"><defs><style>.cls-1,.cls-2,.cls-3{fill:#fff;}.cls-1{fill-rule:evenodd;}.cls-3{opacity:0.25;}</style></defs><title>icos sm custome kreis</title><path class="cls-1" d="M307.5,166.34h-115a26.18,26.18,0,0,0-26.15,26.17v115a26.16,26.16,0,0,0,26.15,26.15h115a26.16,26.16,0,0,0,26.16-26.15v-115A26.18,26.18,0,0,0,307.5,166.34Zm-21.68,23.07a4.65,4.65,0,0,1,4.67-4.66h20.2a4.66,4.66,0,0,1,4.67,4.66v20.21a4.67,4.67,0,0,1-4.67,4.66h-20.2a4.67,4.67,0,0,1-4.67-4.66Zm-66.66,48.51a33.11,33.11,0,0,1,61.68,0A32.81,32.81,0,0,1,283.13,250a33.13,33.13,0,1,1-66.26,0A32.62,32.62,0,0,1,219.16,237.93Zm96.79,69.57a8.47,8.47,0,0,1-8.45,8.45h-115a8.46,8.46,0,0,1-8.44-8.45V237.93h16.53a50.85,50.85,0,1,0,98.81,0h16.54Z"/><path class="cls-2" d="M425,250a174.22,174.22,0,0,1-34.84,104.8l35.63,35.63a225,225,0,0,0,0-280.87l-35.63,35.63A174.22,174.22,0,0,1,425,250Z"/><path class="cls-2" d="M354.8,109.84l35.63-35.63A223.91,223.91,0,0,0,275,26.39v50.4A174.1,174.1,0,0,1,354.8,109.84Z"/><path class="cls-2" d="M225,76.79V26.39A223.91,223.91,0,0,0,109.57,74.21l35.63,35.63A174.1,174.1,0,0,1,225,76.79Z"/><path class="cls-2" d="M75,250a174.22,174.22,0,0,1,34.84-104.8L74.21,109.57a225,225,0,0,0,0,280.87l35.63-35.63A174.22,174.22,0,0,1,75,250Z"/><path class="cls-2" d="M145.2,390.16l-35.63,35.63A223.91,223.91,0,0,0,225,473.61v-50.4A174.1,174.1,0,0,1,145.2,390.16Z"/><path class="cls-2" d="M275,423.21v50.4a223.91,223.91,0,0,0,115.43-47.82L354.8,390.16A174.1,174.1,0,0,1,275,423.21Z"/><circle class="cls-3" cx="250" cy="250" r="225"/></svg>