<svg id="Layer_1" data-name="Layer 1" xmlns="http://www.w3.org/2000/svg" viewBox="0 0 612 792"><defs><style>.cls-1,.cls-10,.cls-6{font-size:14px;}.cls-1,.cls-7{fill:#da1c5c;}.cls-1{font-family:Comfortaa-Light, Comfortaa;}.cls-2{letter-spacing:-0.02em;}.cls-3{letter-spacing:-0.05em;}.cls-4{letter-spacing:-0.05em;}.cls-5{letter-spacing:-0.16em;}.cls-6,.cls-9{fill:#333;}.cls-6{stroke:#58595b;font-family:SukhumvitSet-Thin, Sukhumvit Set;}.cls-17,.cls-19,.cls-20,.cls-21,.cls-22,.cls-23,.cls-24,.cls-25,.cls-26,.cls-27,.cls-28,.cls-29,.cls-30,.cls-31,.cls-6{stroke-miterlimit:10;stroke-width:0.5px;}.cls-8{fill:#58595b;}.cls-10,.cls-14,.cls-16,.cls-18{fill:#231f20;}.cls-10,.cls-14,.cls-15,.cls-16{font-family:Helvetica, Helvetica;}.cls-10{letter-spacing:0.14em;}.cls-11{letter-spacing:0.12em;}.cls-12{letter-spacing:0.12em;}.cls-13{letter-spacing:0.14em;}.cls-14,.cls-15,.cls-16{font-size:10px;}.cls-14,.cls-15{letter-spacing:0.14em;}.cls-15{fill:#fff;}.cls-16{letter-spacing:0.14em;}.cls-17,.cls-19,.cls-20,.cls-21,.cls-22,.cls-23,.cls-24,.cls-25,.cls-26,.cls-27,.cls-28,.cls-29,.cls-30,.cls-31{fill:none;}.cls-17{stroke:#231f20;}.cls-19,.cls-20,.cls-21,.cls-22,.cls-23,.cls-24,.cls-25,.cls-26,.cls-27,.cls-28,.cls-29,.cls-30,.cls-31{stroke:#7b7c7f;}.cls-20{stroke-dasharray:0.99 2.98;}.cls-21{stroke-dasharray:0.96 2.87;}.cls-22{stroke-dasharray:1.04 3.11;}.cls-23{stroke-dasharray:1.02 3.07;}.cls-24{stroke-dasharray:1.03 3.08;}.cls-25{stroke-dasharray:0.99 2.98;}.cls-26{stroke-dasharray:0.99 2.97;}.cls-27{stroke-dasharray:1.01 3.02;}.cls-28{stroke-dasharray:0.95 2.86;}.cls-29{stroke-dasharray:0.99 2.97;}.cls-30{stroke-dasharray:0.94 2.81;}.cls-31{stroke-dasharray:0.92 2.75;}</style></defs><title>Kreis2017 logo</title><text class="cls-1" transform="translate(405.51 767.03)"><tspan class="cls-2">C</tspan><tspan x="9.81" y="0">OM</tspan><tspan class="cls-3" x="33.87" y="0">F</tspan><tspan x="41.88" y="0">O</tspan><tspan class="cls-4" x="53.91" y="0">R</tspan><tspan class="cls-5" x="61.35" y="0">T</tspan><tspan x="68.43" y="0">AA LIGHT EDIT</tspan></text><text class="cls-6" transform="translate(405.51 749.07)">SUKHUMVIT SET EDIT</text><path class="cls-7" d="M285.74,342.72l-35.62,35.71a86.34,86.34,0,0,0,51,21.2V349.12A36.48,36.48,0,0,1,285.74,342.72Z"/><path class="cls-7" d="M313.13,349.12v50.51a86.34,86.34,0,0,0,51-21.2l-35.62-35.71A36.48,36.48,0,0,1,313.13,349.12Z"/><path class="cls-7" d="M301.17,276.43V225.92a86.34,86.34,0,0,0-51,21.2l35.62,35.71A36.48,36.48,0,0,1,301.17,276.43Z"/><path class="cls-7" d="M270.37,312.78a36.73,36.73,0,0,1,6.91-21.47L241.67,255.6a87.16,87.16,0,0,0,0,114.35l35.62-35.71A36.73,36.73,0,0,1,270.37,312.78Z"/><path class="cls-7" d="M328.56,282.83l35.62-35.71a86.34,86.34,0,0,0-51-21.2v50.51A36.48,36.48,0,0,1,328.56,282.83Z"/><path class="cls-7" d="M343.93,312.78A36.73,36.73,0,0,1,337,334.24L372.63,370a87.16,87.16,0,0,0,0-114.35L337,291.31A36.73,36.73,0,0,1,343.93,312.78Z"/><circle class="cls-8" cx="307.15" cy="312.78" r="26.06"/><path class="cls-7" d="M135.92,533.82a1.27,1.27,0,0,1,.37-.92,1.22,1.22,0,0,1,.91-.38,1.29,1.29,0,0,1,1.3,1.3v31a1.29,1.29,0,0,1-1.3,1.3,1.22,1.22,0,0,1-.91-.38,1.27,1.27,0,0,1-.37-.92Z"/><path class="cls-7" d="M158.88,564.78a1.28,1.28,0,0,1-.37.92,1.22,1.22,0,0,1-.91.38,1.28,1.28,0,0,1-1.3-1.3v-31a1.28,1.28,0,0,1,1.3-1.3,1.21,1.21,0,0,1,1,.46l21.81,28v-27.2a1.28,1.28,0,0,1,1.3-1.3,1.23,1.23,0,0,1,.9.38,1.26,1.26,0,0,1,.38.92v31a1.26,1.26,0,0,1-.38.92,1.34,1.34,0,0,1-1.87,0l-21.85-28.1Z"/><path class="cls-7" d="M207.05,532.52a16.78,16.78,0,0,1,0,33.56h-6.9a1.23,1.23,0,0,1-.9-.38,1.26,1.26,0,0,1-.38-.92v-31a1.26,1.26,0,0,1,.38-.92,1.23,1.23,0,0,1,.9-.38Zm0,31a14.2,14.2,0,0,0,0-28.4h-5.6v28.4Z"/><path class="cls-7" d="M239.79,533.82a1.29,1.29,0,0,1,1.3-1.3,1.22,1.22,0,0,1,.91.38,1.28,1.28,0,0,1,.37.92v20.64a9,9,0,1,0,18.08,0V533.82a1.28,1.28,0,0,1,1.3-1.3,1.23,1.23,0,0,1,.9.38,1.26,1.26,0,0,1,.38.92v20.64a11.63,11.63,0,0,1-19.84,8.22,11.16,11.16,0,0,1-3.4-8.22Z"/><path class="cls-7" d="M279,560.77a1.27,1.27,0,0,1,.37-.92,1.22,1.22,0,0,1,.91-.38,1.3,1.3,0,0,1,1.11.59c.18.27.39.55.63.84a8,8,0,0,0,2.29,1.81,7.51,7.51,0,0,0,3.35.79,7,7,0,0,0,4.68-1.74,8.26,8.26,0,0,0,1.85-2.32,7.39,7.39,0,0,0-1-8,7.24,7.24,0,0,0-5-2.56,8.61,8.61,0,0,1-3.07-.9,8.23,8.23,0,0,1-2.51-2,8.82,8.82,0,0,1-1.43-2.45,7.72,7.72,0,0,1-.5-2.77,8.21,8.21,0,0,1,8.2-8.28,8.22,8.22,0,0,1,6.21,2.91,8.13,8.13,0,0,1,.8,1.11,1.34,1.34,0,0,1,.19.71,1.28,1.28,0,0,1-1.28,1.28,1,1,0,0,1-.86-.33c-.22-.31-.5-.66-.82-1a5.31,5.31,0,0,0-3.8-2,5.65,5.65,0,0,0-4.09,1.34,5.17,5.17,0,0,0-1.95,3.75,5.88,5.88,0,0,0,.23,2.18,5.74,5.74,0,0,0,2.78,3.28,5.88,5.88,0,0,0,2.09.58,10.4,10.4,0,0,1,6.77,3.48,10.72,10.72,0,0,1,1.72,3,9.17,9.17,0,0,1,.61,3.29,10.09,10.09,0,0,1-1,4.62,10.44,10.44,0,0,1-2.51,3.05,9.57,9.57,0,0,1-6.33,2.37,10,10,0,0,1-7.63-3.5,9.9,9.9,0,0,1-.78-1A1.29,1.29,0,0,1,279,560.77Z"/><path class="cls-7" d="M314.88,535.1a1.29,1.29,0,0,1-1.28-1.28,1.26,1.26,0,0,1,.38-.92,1.23,1.23,0,0,1,.9-.38h22.38a1.29,1.29,0,0,1,1.3,1.3,1.22,1.22,0,0,1-.38.9,1.25,1.25,0,0,1-.92.38h-9.9v29.68a1.28,1.28,0,0,1-.37.92,1.22,1.22,0,0,1-.91.38,1.28,1.28,0,0,1-1.3-1.3V535.1Z"/><path class="cls-7" d="M364.38,532.52a9.91,9.91,0,0,1,7,16.88,11.25,11.25,0,0,1-3.36,2.26l7.74,12.42a1.2,1.2,0,0,1,.23.69,1.29,1.29,0,0,1-1.3,1.3,1.33,1.33,0,0,1-1.13-.69l-8.2-13.11c-.29,0-.62,0-1,0h-7.32v12.46a1.28,1.28,0,0,1-1.3,1.3,1.23,1.23,0,0,1-.9-.38,1.26,1.26,0,0,1-.38-.92v-31a1.26,1.26,0,0,1,.38-.92,1.23,1.23,0,0,1,.9-.38Zm-7.32,2.58v14.64h7.32a7.3,7.3,0,0,0,7.3-7.32,6.9,6.9,0,0,0-2.14-5.16,7,7,0,0,0-5.16-2.16Z"/><path class="cls-7" d="M394.07,533.82a1.28,1.28,0,0,1,.37-.92,1.22,1.22,0,0,1,.91-.38,1.28,1.28,0,0,1,1.3,1.3v31a1.28,1.28,0,0,1-1.3,1.3,1.22,1.22,0,0,1-.91-.38,1.28,1.28,0,0,1-.37-.92Z"/><path class="cls-7" d="M421.33,554,417,565.28a1.49,1.49,0,0,1-.29.46,1.31,1.31,0,0,1-2.2-1,1.43,1.43,0,0,1,.12-.57l12-30.77a1.78,1.78,0,0,1,.33-.57,1.23,1.23,0,0,1,.9-.36,1.25,1.25,0,0,1,.92.38,1.48,1.48,0,0,1,.33.55l12,30.77a1.44,1.44,0,0,1,.13.57,1.26,1.26,0,0,1-.38.92,1.23,1.23,0,0,1-.9.38,1.3,1.3,0,0,1-.9-.31,1.49,1.49,0,0,1-.31-.48L434.27,554Zm11.94-2.58-5.47-14.09-5.45,14.09Z"/><path class="cls-7" d="M457,560.77a1.27,1.27,0,0,1,.37-.92,1.22,1.22,0,0,1,.91-.38,1.3,1.3,0,0,1,1.11.59c.18.27.39.55.63.84a8,8,0,0,0,2.29,1.81,7.51,7.51,0,0,0,3.35.79,7,7,0,0,0,4.68-1.74,8.26,8.26,0,0,0,1.85-2.32,7.39,7.39,0,0,0-1-8,7.24,7.24,0,0,0-5-2.56,8.61,8.61,0,0,1-3.07-.9,8.23,8.23,0,0,1-2.51-2,8.82,8.82,0,0,1-1.43-2.45,7.72,7.72,0,0,1-.5-2.77,8.21,8.21,0,0,1,8.2-8.28,8.22,8.22,0,0,1,6.21,2.91,8.13,8.13,0,0,1,.8,1.11,1.34,1.34,0,0,1,.19.71,1.28,1.28,0,0,1-1.28,1.28,1,1,0,0,1-.86-.33c-.22-.31-.5-.66-.82-1a5.31,5.31,0,0,0-3.8-2,5.65,5.65,0,0,0-4.09,1.34,5.17,5.17,0,0,0-1.95,3.75,5.88,5.88,0,0,0,.23,2.18,5.74,5.74,0,0,0,2.78,3.28,5.88,5.88,0,0,0,2.09.58,10.4,10.4,0,0,1,6.77,3.48,10.72,10.72,0,0,1,1.72,3,9.17,9.17,0,0,1,.61,3.29,10.09,10.09,0,0,1-1,4.62,10.44,10.44,0,0,1-2.51,3.05,9.57,9.57,0,0,1-6.33,2.37,10,10,0,0,1-7.63-3.5,9.9,9.9,0,0,1-.78-1A1.29,1.29,0,0,1,457,560.77Z"/><rect class="cls-9" x="384.74" y="430.25" width="8.91" height="82.43"/><path class="cls-9" d="M473.86,480.48a20.5,20.5,0,0,0-5.75-6.45,34.2,34.2,0,0,0-8-4.26c-2.88-1.1-5.88-2.18-8.92-3.19-2.78-.93-5.3-1.88-7.49-2.82a24.51,24.51,0,0,1-5.48-3.17,12.07,12.07,0,0,1-3.35-4,12.6,12.6,0,0,1-1.16-5.74c0-4.08,1.24-7.25,3.81-9.67s6.93-3.64,13-3.64a42.23,42.23,0,0,1,9,1,36.74,36.74,0,0,1,8.07,2.69l1.68.81,2.7-7.27-1.34-.69a47.2,47.2,0,0,0-8.7-3.29,42.69,42.69,0,0,0-11.54-1.47,36,36,0,0,0-11.39,1.61,22.2,22.2,0,0,0-8,4.52,17.19,17.19,0,0,0-4.61,6.89,23.91,23.91,0,0,0-1.39,8.14,20.13,20.13,0,0,0,2.2,9.66,21.71,21.71,0,0,0,5.6,6.74,32.61,32.61,0,0,0,7.54,4.45c2.68,1.14,5.41,2.17,8.1,3s5.09,1.69,7.52,2.47a25.7,25.7,0,0,1,6,2.8A12,12,0,0,1,466,483.7a13,13,0,0,1,1.41,6.53,15.87,15.87,0,0,1-1.35,6.88,12.85,12.85,0,0,1-3.67,4.62,16.06,16.06,0,0,1-5.79,2.75,29.8,29.8,0,0,1-7.65.94,42,42,0,0,1-11.15-1.28,47.73,47.73,0,0,1-8.49-3.23l-1.71-.86-2.77,7.73,1.24.71a41.64,41.64,0,0,0,9,3.61,51.94,51.94,0,0,0,13.9,1.53,38.08,38.08,0,0,0,10.92-1.48,24.5,24.5,0,0,0,8.62-4.48,20.3,20.3,0,0,0,5.63-7.41,24.34,24.34,0,0,0,2-10A19.65,19.65,0,0,0,473.86,480.48Z"/><path class="cls-9" d="M257.47,478.51a25.89,25.89,0,0,0,13.12-7.35c3.92-4.18,5.91-9.72,5.91-16.47a26.4,26.4,0,0,0-1.82-9.9,21.55,21.55,0,0,0-5.35-7.82,24.15,24.15,0,0,0-8.51-5,34.08,34.08,0,0,0-11.23-1.74H220.35v82.43h8.91V479.5h18.8l20.17,33.18h10.08Zm-28.22-7.34v-32.6H249.6c6,0,10.56,1.44,13.54,4.28s4.46,6.73,4.46,11.84-1.59,9.2-4.88,12.09-8,4.38-13.95,4.38Z"/><polygon class="cls-9" points="310.97 474.46 349.08 474.46 349.08 466.13 310.97 466.13 310.97 438.58 351.66 438.58 351.66 430.25 302.06 430.25 302.06 512.68 352.36 512.68 352.36 504.48 310.97 504.48 310.97 474.46"/><polygon class="cls-9" points="196.11 430.25 184.74 430.25 150 466.8 150 471.17 186.21 512.68 197.28 512.68 159.27 468.94 196.11 430.25"/><rect class="cls-9" x="136.04" y="430.25" width="8.91" height="82.43"/><circle class="cls-7" cx="53.31" cy="755.05" r="14.17"/><text class="cls-10" transform="translate(72.95 749.29)">C10 M100<tspan class="cls-11" x="80.16" y="0"> </tspan><tspan x="85.75" y="0">Y50 K0 </tspan><tspan x="0" y="16.8">RGB#DA1C5C</tspan></text><circle class="cls-8" cx="243.27" cy="755.05" r="14.17"/><text class="cls-10" transform="translate(262.91 749.29)">C0 M0<tspan class="cls-12" x="50.96" y="0"> </tspan><tspan class="cls-13" x="56.55" y="0">Y0 K80 </tspan><tspan x="0" y="16.8">RGB#DA1C5C</tspan></text><text class="cls-14" transform="translate(295.58 599.36)">12x</text><text class="cls-14" transform="translate(236.4 199.14)">6.13x</text><text class="cls-14" transform="translate(301.59 179.61)">.42x</text><text class="cls-14" transform="translate(71.17 315.14)">6.13x</text><text class="cls-15" transform="translate(361.95 307.02)">R=<tspan x="-14.74" y="12">3.0641x</tspan></text><text class="cls-15" transform="translate(299.95 307.02)">R=<tspan x="-11.26" y="12">.9192x</tspan></text><text class="cls-14" transform="translate(71.17 474.11)">2.97x</text><text class="cls-14" transform="translate(71.17 551.94)">1.18x</text><text class="cls-14" transform="translate(503.85 356.07)">12x</text><text class="cls-14" transform="translate(524.35 416.48)">1.05x</text><text class="cls-14" transform="translate(524.35 525.16)">.715x</text><text class="cls-14" transform="translate(413.23 398.64)">45</text><text class="cls-16" transform="translate(427.14 395.31) scale(0.58)">o</text><line class="cls-17" x1="496.08" y1="226.46" x2="496.08" y2="565.54"/><polygon class="cls-18" points="494.03 228.12 494.4 228.46 496.08 226.66 497.76 228.46 498.12 228.12 496.08 225.92 494.03 228.12"/><polygon class="cls-18" points="494.03 563.88 494.4 563.54 496.08 565.34 497.76 563.54 498.12 563.88 496.08 566.08 494.03 563.88"/><line class="cls-17" x1="516.08" y1="514.36" x2="516.08" y2="532.18"/><polygon class="cls-18" points="514.03 516.02 514.4 516.36 516.08 514.55 517.76 516.36 518.12 516.02 516.08 513.82 514.03 516.02"/><polygon class="cls-18" points="514.03 530.52 514.4 530.18 516.08 531.98 517.76 530.18 518.12 530.52 516.08 532.72 514.03 530.52"/><line class="cls-17" x1="116.04" y1="226.46" x2="116.04" y2="398.54"/><polygon class="cls-18" points="114 228.12 114.36 228.46 116.04 226.66 117.72 228.46 118.09 228.12 116.04 225.92 114 228.12"/><polygon class="cls-18" points="114 396.88 114.36 396.54 116.04 398.34 117.72 396.54 118.09 396.88 116.04 399.08 114 396.88"/><line class="cls-17" x1="116.04" y1="429.8" x2="116.04" y2="513.14"/><polygon class="cls-18" points="114 431.45 114.36 431.79 116.04 429.99 117.72 431.79 118.09 431.45 116.04 429.25 114 431.45"/><polygon class="cls-18" points="114 511.48 114.36 511.14 116.04 512.95 117.72 511.14 118.09 511.48 116.04 513.68 114 511.48"/><line class="cls-17" x1="116.04" y1="533.12" x2="116.04" y2="565.54"/><path class="cls-18" d="M113.64,536.54a.25.25,0,0,0,.35-.08l2.05-3.23,2.05,3.23a.25.25,0,0,0,.42-.27l-2.27-3.56a.25.25,0,0,0-.42,0l-2.27,3.56a.25.25,0,0,0,.08.35Z"/><polygon class="cls-18" points="114 563.88 114.36 563.54 116.04 565.34 117.72 563.54 118.09 563.88 116.04 566.08 114 563.88"/><line class="cls-17" x1="136.46" y1="586.08" x2="474.79" y2="586.08"/><polygon class="cls-18" points="138.12 588.12 138.46 587.76 136.66 586.08 138.46 584.4 138.12 584.03 135.92 586.08 138.12 588.12"/><polygon class="cls-18" points="473.13 588.12 472.79 587.76 474.59 586.08 472.79 584.4 473.13 584.03 475.33 586.08 473.13 588.12"/><line class="cls-17" x1="220.83" y1="205.92" x2="393.46" y2="205.92"/><polygon class="cls-18" points="222.49 207.97 222.83 207.6 221.03 205.92 222.83 204.24 222.49 203.88 220.29 205.92 222.49 207.97"/><polygon class="cls-18" points="391.81 207.97 391.46 207.6 393.27 205.92 391.46 204.24 391.81 203.88 394 205.92 391.81 207.97"/><line class="cls-17" x1="301.71" y1="186.92" x2="312.58" y2="186.92"/><polygon class="cls-18" points="303.37 188.97 303.71 188.6 301.9 186.92 303.71 185.24 303.37 184.88 301.17 186.92 303.37 188.97"/><polygon class="cls-18" points="310.93 188.97 310.59 188.6 312.39 186.92 310.59 185.24 310.93 184.88 313.13 186.92 310.93 188.97"/><line class="cls-19" x1="307.15" y1="312.5" x2="307.5" y2="312.85"/><line class="cls-20" x1="309.6" y1="314.96" x2="392.6" y2="398.22"/><line class="cls-19" x1="393.65" y1="399.28" x2="394" y2="399.63"/><line class="cls-19" x1="116.04" y1="566.08" x2="116.54" y2="566.08"/><line class="cls-21" x1="119.41" y1="566.11" x2="137.13" y2="566.26"/><line class="cls-19" x1="138.57" y1="566.27" x2="139.07" y2="566.27"/><line class="cls-19" x1="467.05" y1="566.08" x2="467.55" y2="566.08"/><line class="cls-22" x1="470.66" y1="566.1" x2="494.02" y2="566.26"/><line class="cls-19" x1="495.58" y1="566.27" x2="496.08" y2="566.27"/><line class="cls-19" x1="467.05" y1="532.52" x2="467.55" y2="532.52"/><line class="cls-23" x1="470.61" y1="532.54" x2="514.05" y2="532.71"/><line class="cls-19" x1="515.58" y1="532.72" x2="516.08" y2="532.72"/><line class="cls-19" x1="467.05" y1="513.62" x2="467.55" y2="513.62"/><line class="cls-23" x1="470.61" y1="513.63" x2="514.05" y2="513.81"/><line class="cls-19" x1="515.58" y1="513.81" x2="516.08" y2="513.82"/><line class="cls-17" x1="516.08" y1="400.22" x2="516.08" y2="428.97"/><polygon class="cls-18" points="514.03 401.87 514.4 402.21 516.08 400.41 517.76 402.21 518.12 401.87 516.08 399.67 514.03 401.87"/><polygon class="cls-18" points="514.03 427.31 514.4 426.97 516.08 428.78 517.76 426.97 518.12 427.31 516.08 429.51 514.03 427.31"/><line class="cls-19" x1="516.08" y1="429.51" x2="515.58" y2="429.51"/><line class="cls-24" x1="512.5" y1="429.5" x2="452.5" y2="429.32"/><line class="cls-19" x1="450.96" y1="429.32" x2="450.46" y2="429.32"/><line class="cls-19" x1="313.6" y1="399.48" x2="314.1" y2="399.48"/><line class="cls-25" x1="317.08" y1="399.48" x2="514.09" y2="399.67"/><line class="cls-19" x1="515.58" y1="399.67" x2="516.08" y2="399.67"/><line class="cls-19" x1="313.6" y1="225.92" x2="314.1" y2="225.92"/><line class="cls-26" x1="317.08" y1="225.93" x2="494.09" y2="226.12"/><line class="cls-19" x1="495.58" y1="226.12" x2="496.08" y2="226.12"/><line class="cls-19" x1="116.04" y1="532.52" x2="116.54" y2="532.53"/><line class="cls-21" x1="119.41" y1="532.55" x2="137.13" y2="532.7"/><line class="cls-19" x1="138.57" y1="532.71" x2="139.07" y2="532.72"/><line class="cls-19" x1="116.04" y1="513.49" x2="116.54" y2="513.49"/><line class="cls-21" x1="119.41" y1="513.52" x2="137.13" y2="513.67"/><line class="cls-19" x1="138.57" y1="513.68" x2="139.07" y2="513.68"/><line class="cls-19" x1="116.04" y1="429.25" x2="116.54" y2="429.26"/><line class="cls-21" x1="119.41" y1="429.28" x2="137.13" y2="429.43"/><line class="cls-19" x1="138.57" y1="429.45" x2="139.07" y2="429.45"/><line class="cls-19" x1="116.04" y1="398.63" x2="116.54" y2="398.63"/><line class="cls-27" x1="119.56" y1="398.64" x2="299.16" y2="398.83"/><line class="cls-19" x1="300.67" y1="398.83" x2="301.17" y2="398.83"/><line class="cls-19" x1="301.13" y1="225.12" x2="301.13" y2="224.62"/><line class="cls-28" x1="301.14" y1="221.76" x2="301.31" y2="188.92"/><line class="cls-19" x1="301.32" y1="187.49" x2="301.32" y2="186.99"/><line class="cls-19" x1="313.51" y1="225.12" x2="313.51" y2="224.62"/><line class="cls-28" x1="313.52" y1="221.76" x2="313.69" y2="188.92"/><line class="cls-19" x1="313.7" y1="187.49" x2="313.7" y2="186.99"/><line class="cls-19" x1="393.93" y1="312.78" x2="393.93" y2="312.28"/><line class="cls-29" x1="393.94" y1="309.31" x2="394.13" y2="207.91"/><line class="cls-19" x1="394.13" y1="206.42" x2="394.13" y2="205.92"/><line class="cls-19" x1="220.22" y1="312.78" x2="220.22" y2="312.28"/><line class="cls-29" x1="220.23" y1="309.31" x2="220.41" y2="207.91"/><line class="cls-19" x1="220.42" y1="206.42" x2="220.42" y2="205.92"/><line class="cls-19" x1="475.33" y1="586.08" x2="475.33" y2="585.58"/><line class="cls-30" x1="475.35" y1="582.77" x2="475.51" y2="557.94"/><line class="cls-19" x1="475.52" y1="556.53" x2="475.52" y2="556.03"/><line class="cls-19" x1="135.92" y1="586.08" x2="135.93" y2="585.58"/><line class="cls-31" x1="135.95" y1="582.83" x2="136.1" y2="565.91"/><line class="cls-19" x1="136.11" y1="564.53" x2="136.12" y2="564.03"/><line class="cls-19" x1="116.04" y1="224.92" x2="116.54" y2="224.92"/><line class="cls-27" x1="119.56" y1="224.93" x2="299.16" y2="225.12"/><line class="cls-19" x1="300.67" y1="225.12" x2="301.17" y2="225.12"/><polyline class="cls-17" points="408.32 391.24 400.12 399.44 410.89 399.44"/><path class="cls-17" d="M405.74,394.07a6.76,6.76,0,0,1,1,5.13"/></svg>