<svg id="Layer_1" data-name="Layer 1" xmlns="http://www.w3.org/2000/svg" xmlns:xlink="http://www.w3.org/1999/xlink" viewBox="0 0 612 792"><defs><style>.cls-1{fill:#da1c5c;}.cls-2{fill:#58595b;}.cls-3{fill:#333;}.cls-4,.cls-7{fill:#231f20;}.cls-5{fill:#5e5e5e;}.cls-6{fill:#fff;}.cls-7{font-size:14px;font-family:Helvetica, Helvetica;letter-spacing:0.14em;}.cls-8{letter-spacing:0.1em;}.cls-9{letter-spacing:0.12em;}.cls-10{letter-spacing:0.08em;}.cls-11{letter-spacing:0.14em;}.cls-12{letter-spacing:0.07em;}</style><symbol id="Full_color" data-name="Full color" viewBox="0 0 170.08 170.08"><path class="cls-1" d="M74.91,58.4,57.1,76.25a43.17,43.17,0,0,0,25.52,10.6V61.6A18.24,18.24,0,0,1,74.91,58.4Z"/><path class="cls-1" d="M88.6,61.6V86.86a43.17,43.17,0,0,0,25.52-10.6L96.32,58.4A18.24,18.24,0,0,1,88.6,61.6Z"/><path class="cls-1" d="M82.62,25.26V0A43.17,43.17,0,0,0,57.1,10.6L74.91,28.46A18.24,18.24,0,0,1,82.62,25.26Z"/><path class="cls-1" d="M67.22,43.43a18.36,18.36,0,0,1,3.46-10.73L52.87,14.84a43.58,43.58,0,0,0,0,57.18L70.68,54.16A18.36,18.36,0,0,1,67.22,43.43Z"/><path class="cls-1" d="M96.32,28.46,114.13,10.6A43.17,43.17,0,0,0,88.6,0V25.26A18.24,18.24,0,0,1,96.32,28.46Z"/><path class="cls-1" d="M104,43.43a18.36,18.36,0,0,1-3.46,10.73L118.35,72a43.58,43.58,0,0,0,0-57.18L100.55,32.69A18.36,18.36,0,0,1,104,43.43Z"/><circle class="cls-2" cx="85.61" cy="43.43" r="13.03"/><path class="cls-1" d="M0,154a.64.64,0,0,1,.18-.46.61.61,0,0,1,.46-.19.63.63,0,0,1,.46.19.63.63,0,0,1,.19.46v15.48a.63.63,0,0,1-.19.46.63.63,0,0,1-.46.19.61.61,0,0,1-.46-.19.64.64,0,0,1-.18-.46Z"/><path class="cls-1" d="M11.48,169.43a.64.64,0,0,1-.18.46.61.61,0,0,1-.46.19.64.64,0,0,1-.65-.65V154a.64.64,0,0,1,.65-.65.61.61,0,0,1,.49.23l10.91,14V154a.64.64,0,0,1,.65-.65.62.62,0,0,1,.45.19.63.63,0,0,1,.19.46v15.48a.63.63,0,0,1-.19.46.67.67,0,0,1-.93,0L11.48,155.84Z"/><path class="cls-1" d="M35.57,153.3a8.39,8.39,0,0,1,0,16.78H32.12a.62.62,0,0,1-.45-.19.63.63,0,0,1-.19-.46V154a.63.63,0,0,1,.19-.46.62.62,0,0,1,.45-.19Zm0,15.49a7.1,7.1,0,0,0,0-14.2h-2.8v14.2Z"/><path class="cls-1" d="M51.93,154a.64.64,0,0,1,.65-.65.61.61,0,0,1,.46.19.64.64,0,0,1,.18.46v10.32a4.52,4.52,0,1,0,9,0V154a.64.64,0,0,1,.65-.65.62.62,0,0,1,.45.19.63.63,0,0,1,.19.46v10.32a5.81,5.81,0,0,1-9.92,4.11,5.58,5.58,0,0,1-1.7-4.11Z"/><path class="cls-1" d="M71.53,167.43a.64.64,0,0,1,.18-.46.61.61,0,0,1,.46-.19.65.65,0,0,1,.55.29c.09.13.2.27.31.42a4,4,0,0,0,1.14.91,3.76,3.76,0,0,0,1.68.39,3.52,3.52,0,0,0,2.34-.87,4.13,4.13,0,0,0,.92-1.16,3.7,3.7,0,0,0-.5-4,3.62,3.62,0,0,0-2.49-1.28A4.31,4.31,0,0,1,74.6,161a4.11,4.11,0,0,1-1.25-1,4.41,4.41,0,0,1-.71-1.23,3.86,3.86,0,0,1-.25-1.38,4.11,4.11,0,0,1,4.1-4.14,4.11,4.11,0,0,1,3.1,1.46,4.07,4.07,0,0,1,.4.56.67.67,0,0,1,.09.36.64.64,0,0,1-.64.64.5.5,0,0,1-.43-.17c-.11-.15-.25-.33-.41-.52a2.66,2.66,0,0,0-1.9-1,2.82,2.82,0,0,0-2,.67,2.58,2.58,0,0,0-1,1.88,2.94,2.94,0,0,0,.12,1.09,2.87,2.87,0,0,0,1.39,1.64,2.94,2.94,0,0,0,1,.29,5.2,5.2,0,0,1,3.39,1.74,5.36,5.36,0,0,1,.86,1.48,4.59,4.59,0,0,1,.3,1.65,5,5,0,0,1-.49,2.31A5.22,5.22,0,0,1,79,168.89a4.78,4.78,0,0,1-3.17,1.18,5,5,0,0,1-3.82-1.75,5,5,0,0,1-.39-.5A.64.64,0,0,1,71.53,167.43Z"/><path class="cls-1" d="M89.48,154.59a.65.65,0,0,1-.64-.64.63.63,0,0,1,.19-.46.62.62,0,0,1,.45-.19h11.19a.64.64,0,0,1,.65.65.61.61,0,0,1-.19.45.62.62,0,0,1-.46.19H95.72v14.84a.64.64,0,0,1-.18.46.61.61,0,0,1-.46.19.64.64,0,0,1-.65-.65V154.59Z"/><path class="cls-1" d="M114.23,153.3a5,5,0,0,1,3.5,8.44,5.63,5.63,0,0,1-1.68,1.13l3.87,6.21a.6.6,0,0,1,.12.35.64.64,0,0,1-.65.65.67.67,0,0,1-.57-.35l-4.1-6.55-.49,0h-3.66v6.23a.64.64,0,0,1-.65.65.62.62,0,0,1-.45-.19.63.63,0,0,1-.19-.46V154a.63.63,0,0,1,.19-.46.62.62,0,0,1,.45-.19Zm-3.66,1.29v7.32h3.66a3.65,3.65,0,0,0,3.65-3.66,3.45,3.45,0,0,0-1.07-2.58,3.5,3.5,0,0,0-2.58-1.08Z"/><path class="cls-1" d="M129.08,154a.64.64,0,0,1,.18-.46.61.61,0,0,1,.46-.19.64.64,0,0,1,.65.65v15.48a.64.64,0,0,1-.65.65.61.61,0,0,1-.46-.19.64.64,0,0,1-.18-.46Z"/><path class="cls-1" d="M142.71,164.06l-2.19,5.62a.74.74,0,0,1-.15.23.65.65,0,0,1-1.1-.48.72.72,0,0,1,.06-.28l6-15.38a.89.89,0,0,1,.17-.28.62.62,0,0,1,.45-.18.63.63,0,0,1,.46.19.74.74,0,0,1,.17.27l6,15.38a.72.72,0,0,1,.06.28.63.63,0,0,1-.19.46.62.62,0,0,1-.45.19.65.65,0,0,1-.45-.16.74.74,0,0,1-.16-.24l-2.18-5.62Zm6-1.29-2.74-7-2.73,7Z"/><path class="cls-1" d="M160.55,167.43a.64.64,0,0,1,.18-.46.61.61,0,0,1,.46-.19.65.65,0,0,1,.55.29c.09.13.2.27.31.42a4,4,0,0,0,1.14.91,3.76,3.76,0,0,0,1.68.39,3.52,3.52,0,0,0,2.34-.87,4.13,4.13,0,0,0,.92-1.16,3.7,3.7,0,0,0-.5-4,3.62,3.62,0,0,0-2.49-1.28,4.31,4.31,0,0,1-1.54-.45,4.11,4.11,0,0,1-1.25-1,4.41,4.41,0,0,1-.71-1.23,3.86,3.86,0,0,1-.25-1.38,4.11,4.11,0,0,1,4.1-4.14,4.11,4.11,0,0,1,3.1,1.46,4.07,4.07,0,0,1,.4.56.67.67,0,0,1,.09.36.64.64,0,0,1-.64.64.5.5,0,0,1-.43-.17c-.11-.15-.25-.33-.41-.52a2.66,2.66,0,0,0-1.9-1,2.82,2.82,0,0,0-2,.67,2.58,2.58,0,0,0-1,1.88,2.94,2.94,0,0,0,.12,1.09,2.87,2.87,0,0,0,1.39,1.64,2.94,2.94,0,0,0,1,.29,5.2,5.2,0,0,1,3.39,1.74,5.36,5.36,0,0,1,.86,1.48,4.59,4.59,0,0,1,.3,1.65,5,5,0,0,1-.49,2.31,5.22,5.22,0,0,1-1.25,1.53,4.78,4.78,0,0,1-3.17,1.18,5,5,0,0,1-3.82-1.75,5,5,0,0,1-.39-.5A.64.64,0,0,1,160.55,167.43Z"/><rect class="cls-3" x="124.41" y="102.17" width="4.46" height="41.21"/><path class="cls-3" d="M169,127.28a10.25,10.25,0,0,0-2.88-3.23,17.1,17.1,0,0,0-4-2.13c-1.44-.55-2.94-1.09-4.46-1.59s-2.65-.94-3.74-1.41a12.26,12.26,0,0,1-2.74-1.59,6,6,0,0,1-1.67-2,7.18,7.18,0,0,1,1.32-7.7c1.28-1.21,3.47-1.82,6.51-1.82a21.12,21.12,0,0,1,4.51.51,18.37,18.37,0,0,1,4,1.34l.84.41,1.35-3.63-.67-.35a23.6,23.6,0,0,0-4.35-1.65,21.34,21.34,0,0,0-5.77-.73,18,18,0,0,0-5.7.81,11.1,11.1,0,0,0-4,2.26,8.6,8.6,0,0,0-2.31,3.44,12,12,0,0,0-.7,4.07,10.06,10.06,0,0,0,1.1,4.83,10.86,10.86,0,0,0,2.8,3.37,16.31,16.31,0,0,0,3.77,2.23c1.34.57,2.7,1.08,4.05,1.52l3.76,1.23a12.85,12.85,0,0,1,3,1.4,6,6,0,0,1,2,2,6.5,6.5,0,0,1,.71,3.27,7.94,7.94,0,0,1-.68,3.44,6.43,6.43,0,0,1-1.84,2.31,8,8,0,0,1-2.89,1.37,14.9,14.9,0,0,1-3.83.47,21,21,0,0,1-5.58-.64,23.86,23.86,0,0,1-4.25-1.61l-.86-.43-1.39,3.86.62.35a20.82,20.82,0,0,0,4.49,1.81,26,26,0,0,0,6.95.77,19,19,0,0,0,5.46-.74,12.25,12.25,0,0,0,4.31-2.24,10.15,10.15,0,0,0,2.81-3.71,12.17,12.17,0,0,0,1-5A9.83,9.83,0,0,0,169,127.28Z"/><path class="cls-3" d="M60.78,126.3a12.94,12.94,0,0,0,6.56-3.67,11.59,11.59,0,0,0,3-8.23,13.2,13.2,0,0,0-.91-4.95,10.77,10.77,0,0,0-2.67-3.91,12.08,12.08,0,0,0-4.25-2.5,17,17,0,0,0-5.62-.87H42.21v41.21h4.46V126.79h9.4l10.08,16.59h5Zm-14.11-3.67v-16.3H56.84c3,0,5.28.72,6.77,2.14a7.72,7.72,0,0,1,2.23,5.92,7.57,7.57,0,0,1-2.44,6,10.24,10.24,0,0,1-7,2.19Z"/><polygon class="cls-3" points="87.52 124.27 106.58 124.27 106.58 120.11 87.52 120.11 87.52 106.33 107.87 106.33 107.87 102.17 83.07 102.17 83.07 143.38 108.22 143.38 108.22 139.28 87.52 139.28 87.52 124.27"/><polygon class="cls-3" points="30.09 102.17 24.41 102.17 7.04 120.44 7.04 122.62 25.15 143.38 30.68 143.38 11.67 121.51 30.09 102.17"/><rect class="cls-3" x="0.06" y="102.17" width="4.46" height="41.21"/></symbol><symbol id="color_solid" data-name="color solid" viewBox="0 0 170.08 170.08"><path class="cls-1" d="M74.91,58.4,57.1,76.25a43.17,43.17,0,0,0,25.52,10.6V61.6A18.24,18.24,0,0,1,74.91,58.4Z"/><path class="cls-1" d="M88.6,61.6V86.86a43.17,43.17,0,0,0,25.52-10.6L96.32,58.4A18.24,18.24,0,0,1,88.6,61.6Z"/><path class="cls-1" d="M82.62,25.26V0A43.17,43.17,0,0,0,57.1,10.6L74.91,28.46A18.24,18.24,0,0,1,82.62,25.26Z"/><path class="cls-1" d="M67.22,43.43a18.36,18.36,0,0,1,3.46-10.73L52.87,14.84a43.58,43.58,0,0,0,0,57.18L70.68,54.16A18.36,18.36,0,0,1,67.22,43.43Z"/><path class="cls-1" d="M96.32,28.46,114.13,10.6A43.17,43.17,0,0,0,88.6,0V25.26A18.24,18.24,0,0,1,96.32,28.46Z"/><path class="cls-1" d="M104,43.43a18.36,18.36,0,0,1-3.46,10.73L118.35,72a43.58,43.58,0,0,0,0-57.18L100.55,32.69A18.36,18.36,0,0,1,104,43.43Z"/><circle class="cls-1" cx="85.61" cy="43.43" r="13.03"/><path class="cls-1" d="M0,154a.64.64,0,0,1,.18-.46.61.61,0,0,1,.46-.19.63.63,0,0,1,.46.19.63.63,0,0,1,.19.46v15.48a.63.63,0,0,1-.19.46.63.63,0,0,1-.46.19.61.61,0,0,1-.46-.19.64.64,0,0,1-.18-.46Z"/><path class="cls-1" d="M11.48,169.43a.64.64,0,0,1-.18.46.61.61,0,0,1-.46.19.64.64,0,0,1-.65-.65V154a.64.64,0,0,1,.65-.65.61.61,0,0,1,.49.23l10.91,14V154a.64.64,0,0,1,.65-.65.62.62,0,0,1,.45.19.63.63,0,0,1,.19.46v15.48a.63.63,0,0,1-.19.46.67.67,0,0,1-.93,0L11.48,155.84Z"/><path class="cls-1" d="M35.57,153.3a8.39,8.39,0,0,1,0,16.78H32.12a.62.62,0,0,1-.45-.19.63.63,0,0,1-.19-.46V154a.63.63,0,0,1,.19-.46.62.62,0,0,1,.45-.19Zm0,15.49a7.1,7.1,0,0,0,0-14.2h-2.8v14.2Z"/><path class="cls-1" d="M51.93,154a.64.64,0,0,1,.65-.65.61.61,0,0,1,.46.19.64.64,0,0,1,.18.46v10.32a4.52,4.52,0,1,0,9,0V154a.64.64,0,0,1,.65-.65.62.62,0,0,1,.45.19.63.63,0,0,1,.19.46v10.32a5.81,5.81,0,0,1-9.92,4.11,5.58,5.58,0,0,1-1.7-4.11Z"/><path class="cls-1" d="M71.53,167.43a.64.64,0,0,1,.18-.46.61.61,0,0,1,.46-.19.65.65,0,0,1,.55.29c.09.13.2.27.31.42a4,4,0,0,0,1.14.91,3.76,3.76,0,0,0,1.68.39,3.52,3.52,0,0,0,2.34-.87,4.13,4.13,0,0,0,.92-1.16,3.7,3.7,0,0,0-.5-4,3.62,3.62,0,0,0-2.49-1.28A4.31,4.31,0,0,1,74.6,161a4.11,4.11,0,0,1-1.25-1,4.41,4.41,0,0,1-.71-1.23,3.86,3.86,0,0,1-.25-1.38,4.11,4.11,0,0,1,4.1-4.14,4.11,4.11,0,0,1,3.1,1.46,4.07,4.07,0,0,1,.4.56.67.67,0,0,1,.09.36.64.64,0,0,1-.64.64.5.5,0,0,1-.43-.17c-.11-.15-.25-.33-.41-.52a2.66,2.66,0,0,0-1.9-1,2.82,2.82,0,0,0-2,.67,2.58,2.58,0,0,0-1,1.88,2.94,2.94,0,0,0,.12,1.09,2.87,2.87,0,0,0,1.39,1.64,2.94,2.94,0,0,0,1,.29,5.2,5.2,0,0,1,3.39,1.74,5.36,5.36,0,0,1,.86,1.48,4.59,4.59,0,0,1,.3,1.65,5,5,0,0,1-.49,2.31A5.22,5.22,0,0,1,79,168.89a4.78,4.78,0,0,1-3.17,1.18,5,5,0,0,1-3.82-1.75,5,5,0,0,1-.39-.5A.64.64,0,0,1,71.53,167.43Z"/><path class="cls-1" d="M89.48,154.59a.65.65,0,0,1-.64-.64.63.63,0,0,1,.19-.46.62.62,0,0,1,.45-.19h11.19a.64.64,0,0,1,.65.65.61.61,0,0,1-.19.45.62.62,0,0,1-.46.19H95.72v14.84a.64.64,0,0,1-.18.46.61.61,0,0,1-.46.19.64.64,0,0,1-.65-.65V154.59Z"/><path class="cls-1" d="M114.23,153.3a5,5,0,0,1,3.5,8.44,5.63,5.63,0,0,1-1.68,1.13l3.87,6.21a.6.6,0,0,1,.12.35.64.64,0,0,1-.65.65.67.67,0,0,1-.57-.35l-4.1-6.55-.49,0h-3.66v6.23a.64.64,0,0,1-.65.65.62.62,0,0,1-.45-.19.63.63,0,0,1-.19-.46V154a.63.63,0,0,1,.19-.46.62.62,0,0,1,.45-.19Zm-3.66,1.29v7.32h3.66a3.65,3.65,0,0,0,3.65-3.66,3.45,3.45,0,0,0-1.07-2.58,3.5,3.5,0,0,0-2.58-1.08Z"/><path class="cls-1" d="M129.08,154a.64.64,0,0,1,.18-.46.61.61,0,0,1,.46-.19.64.64,0,0,1,.65.65v15.48a.64.64,0,0,1-.65.65.61.61,0,0,1-.46-.19.64.64,0,0,1-.18-.46Z"/><path class="cls-1" d="M142.71,164.06l-2.19,5.62a.74.74,0,0,1-.15.23.65.65,0,0,1-1.1-.48.72.72,0,0,1,.06-.28l6-15.38a.89.89,0,0,1,.17-.28.62.62,0,0,1,.45-.18.63.63,0,0,1,.46.19.74.74,0,0,1,.17.27l6,15.38a.72.72,0,0,1,.06.28.63.63,0,0,1-.19.46.62.62,0,0,1-.45.19.65.65,0,0,1-.45-.16.74.74,0,0,1-.16-.24l-2.18-5.62Zm6-1.29-2.74-7-2.73,7Z"/><path class="cls-1" d="M160.55,167.43a.64.64,0,0,1,.18-.46.61.61,0,0,1,.46-.19.65.65,0,0,1,.55.29c.09.13.2.27.31.42a4,4,0,0,0,1.14.91,3.76,3.76,0,0,0,1.68.39,3.52,3.52,0,0,0,2.34-.87,4.13,4.13,0,0,0,.92-1.16,3.7,3.7,0,0,0-.5-4,3.62,3.62,0,0,0-2.49-1.28,4.31,4.31,0,0,1-1.54-.45,4.11,4.11,0,0,1-1.25-1,4.41,4.41,0,0,1-.71-1.23,3.86,3.86,0,0,1-.25-1.38,4.11,4.11,0,0,1,4.1-4.14,4.11,4.11,0,0,1,3.1,1.46,4.07,4.07,0,0,1,.4.56.67.67,0,0,1,.09.36.64.64,0,0,1-.64.64.5.5,0,0,1-.43-.17c-.11-.15-.25-.33-.41-.52a2.66,2.66,0,0,0-1.9-1,2.82,2.82,0,0,0-2,.67,2.58,2.58,0,0,0-1,1.88,2.94,2.94,0,0,0,.12,1.09,2.87,2.87,0,0,0,1.39,1.64,2.94,2.94,0,0,0,1,.29,5.2,5.2,0,0,1,3.39,1.74,5.36,5.36,0,0,1,.86,1.48,4.59,4.59,0,0,1,.3,1.65,5,5,0,0,1-.49,2.31,5.22,5.22,0,0,1-1.25,1.53,4.78,4.78,0,0,1-3.17,1.18,5,5,0,0,1-3.82-1.75,5,5,0,0,1-.39-.5A.64.64,0,0,1,160.55,167.43Z"/><rect class="cls-1" x="124.41" y="102.17" width="4.46" height="41.21"/><path class="cls-1" d="M169,127.28a10.25,10.25,0,0,0-2.88-3.23,17.1,17.1,0,0,0-4-2.13c-1.44-.55-2.94-1.09-4.46-1.59s-2.65-.94-3.74-1.41a12.26,12.26,0,0,1-2.74-1.59,6,6,0,0,1-1.67-2,7.18,7.18,0,0,1,1.32-7.7c1.28-1.21,3.47-1.82,6.51-1.82a21.12,21.12,0,0,1,4.51.51,18.37,18.37,0,0,1,4,1.34l.84.41,1.35-3.63-.67-.35a23.6,23.6,0,0,0-4.35-1.65,21.34,21.34,0,0,0-5.77-.73,18,18,0,0,0-5.7.81,11.1,11.1,0,0,0-4,2.26,8.6,8.6,0,0,0-2.31,3.44,12,12,0,0,0-.7,4.07,10.06,10.06,0,0,0,1.1,4.83,10.86,10.86,0,0,0,2.8,3.37,16.31,16.31,0,0,0,3.77,2.23c1.34.57,2.7,1.08,4.05,1.52l3.76,1.23a12.85,12.85,0,0,1,3,1.4,6,6,0,0,1,2,2,6.5,6.5,0,0,1,.71,3.27,7.94,7.94,0,0,1-.68,3.44,6.43,6.43,0,0,1-1.84,2.31,8,8,0,0,1-2.89,1.37,14.9,14.9,0,0,1-3.83.47,21,21,0,0,1-5.58-.64,23.86,23.86,0,0,1-4.25-1.61l-.86-.43-1.39,3.86.62.35a20.82,20.82,0,0,0,4.49,1.81,26,26,0,0,0,6.95.77,19,19,0,0,0,5.46-.74,12.25,12.25,0,0,0,4.31-2.24,10.15,10.15,0,0,0,2.81-3.71,12.17,12.17,0,0,0,1-5A9.83,9.83,0,0,0,169,127.28Z"/><path class="cls-1" d="M60.78,126.3a12.94,12.94,0,0,0,6.56-3.67,11.59,11.59,0,0,0,3-8.23,13.2,13.2,0,0,0-.91-4.95,10.77,10.77,0,0,0-2.67-3.91,12.08,12.08,0,0,0-4.25-2.5,17,17,0,0,0-5.62-.87H42.21v41.21h4.46V126.79h9.4l10.08,16.59h5Zm-14.11-3.67v-16.3H56.84c3,0,5.28.72,6.77,2.14a7.72,7.72,0,0,1,2.23,5.92,7.57,7.57,0,0,1-2.44,6,10.24,10.24,0,0,1-7,2.19Z"/><polygon class="cls-1" points="87.52 124.27 106.58 124.27 106.58 120.11 87.52 120.11 87.52 106.33 107.87 106.33 107.87 102.17 83.07 102.17 83.07 143.38 108.22 143.38 108.22 139.28 87.52 139.28 87.52 124.27"/><polygon class="cls-1" points="30.09 102.17 24.41 102.17 7.04 120.44 7.04 122.62 25.15 143.38 30.68 143.38 11.67 121.51 30.09 102.17"/><rect class="cls-1" x="0.06" y="102.17" width="4.46" height="41.21"/></symbol><symbol id="black" data-name="black" viewBox="0 0 170.08 170.08"><path class="cls-4" d="M74.91,58.4,57.1,76.25a43.17,43.17,0,0,0,25.52,10.6V61.6A18.24,18.24,0,0,1,74.91,58.4Z"/><path class="cls-4" d="M88.6,61.6V86.86a43.17,43.17,0,0,0,25.52-10.6L96.32,58.4A18.24,18.24,0,0,1,88.6,61.6Z"/><path class="cls-4" d="M82.62,25.26V0A43.17,43.17,0,0,0,57.1,10.6L74.91,28.46A18.24,18.24,0,0,1,82.62,25.26Z"/><path class="cls-4" d="M67.22,43.43a18.36,18.36,0,0,1,3.46-10.73L52.87,14.84a43.58,43.58,0,0,0,0,57.18L70.68,54.16A18.36,18.36,0,0,1,67.22,43.43Z"/><path class="cls-4" d="M96.32,28.46,114.13,10.6A43.17,43.17,0,0,0,88.6,0V25.26A18.24,18.24,0,0,1,96.32,28.46Z"/><path class="cls-4" d="M104,43.43a18.36,18.36,0,0,1-3.46,10.73L118.35,72a43.58,43.58,0,0,0,0-57.18L100.55,32.69A18.36,18.36,0,0,1,104,43.43Z"/><circle class="cls-4" cx="85.61" cy="43.43" r="13.03"/><path class="cls-4" d="M0,154a.64.64,0,0,1,.18-.46.61.61,0,0,1,.46-.19.63.63,0,0,1,.46.19.63.63,0,0,1,.19.46v15.48a.63.63,0,0,1-.19.46.63.63,0,0,1-.46.19.61.61,0,0,1-.46-.19.64.64,0,0,1-.18-.46Z"/><path class="cls-4" d="M11.48,169.43a.64.64,0,0,1-.18.46.61.61,0,0,1-.46.19.64.64,0,0,1-.65-.65V154a.64.64,0,0,1,.65-.65.61.61,0,0,1,.49.23l10.91,14V154a.64.64,0,0,1,.65-.65.62.62,0,0,1,.45.19.63.63,0,0,1,.19.46v15.48a.63.63,0,0,1-.19.46.67.67,0,0,1-.93,0L11.48,155.84Z"/><path class="cls-4" d="M35.57,153.3a8.39,8.39,0,0,1,0,16.78H32.12a.62.62,0,0,1-.45-.19.63.63,0,0,1-.19-.46V154a.63.63,0,0,1,.19-.46.62.62,0,0,1,.45-.19Zm0,15.49a7.1,7.1,0,0,0,0-14.2h-2.8v14.2Z"/><path class="cls-4" d="M51.93,154a.64.64,0,0,1,.65-.65.61.61,0,0,1,.46.19.64.64,0,0,1,.18.46v10.32a4.52,4.52,0,1,0,9,0V154a.64.64,0,0,1,.65-.65.62.62,0,0,1,.45.19.63.63,0,0,1,.19.46v10.32a5.81,5.81,0,0,1-9.92,4.11,5.58,5.58,0,0,1-1.7-4.11Z"/><path class="cls-4" d="M71.53,167.43a.64.64,0,0,1,.18-.46.61.61,0,0,1,.46-.19.65.65,0,0,1,.55.29c.09.13.2.27.31.42a4,4,0,0,0,1.14.91,3.76,3.76,0,0,0,1.68.39,3.52,3.52,0,0,0,2.34-.87,4.13,4.13,0,0,0,.92-1.16,3.7,3.7,0,0,0-.5-4,3.62,3.62,0,0,0-2.49-1.28A4.31,4.31,0,0,1,74.6,161a4.11,4.11,0,0,1-1.25-1,4.41,4.41,0,0,1-.71-1.23,3.86,3.86,0,0,1-.25-1.38,4.11,4.11,0,0,1,4.1-4.14,4.11,4.11,0,0,1,3.1,1.46,4.07,4.07,0,0,1,.4.56.67.67,0,0,1,.09.36.64.64,0,0,1-.64.64.5.5,0,0,1-.43-.17c-.11-.15-.25-.33-.41-.52a2.66,2.66,0,0,0-1.9-1,2.82,2.82,0,0,0-2,.67,2.58,2.58,0,0,0-1,1.88,2.94,2.94,0,0,0,.12,1.09,2.87,2.87,0,0,0,1.39,1.64,2.94,2.94,0,0,0,1,.29,5.2,5.2,0,0,1,3.39,1.74,5.36,5.36,0,0,1,.86,1.48,4.59,4.59,0,0,1,.3,1.65,5,5,0,0,1-.49,2.31A5.22,5.22,0,0,1,79,168.89a4.78,4.78,0,0,1-3.17,1.18,5,5,0,0,1-3.82-1.75,5,5,0,0,1-.39-.5A.64.64,0,0,1,71.53,167.43Z"/><path class="cls-4" d="M89.48,154.59a.65.65,0,0,1-.64-.64.63.63,0,0,1,.19-.46.62.62,0,0,1,.45-.19h11.19a.64.64,0,0,1,.65.65.61.61,0,0,1-.19.45.62.62,0,0,1-.46.19H95.72v14.84a.64.64,0,0,1-.18.46.61.61,0,0,1-.46.19.64.64,0,0,1-.65-.65V154.59Z"/><path class="cls-4" d="M114.23,153.3a5,5,0,0,1,3.5,8.44,5.63,5.63,0,0,1-1.68,1.13l3.87,6.21a.6.6,0,0,1,.12.35.64.64,0,0,1-.65.65.67.67,0,0,1-.57-.35l-4.1-6.55-.49,0h-3.66v6.23a.64.64,0,0,1-.65.65.62.62,0,0,1-.45-.19.63.63,0,0,1-.19-.46V154a.63.63,0,0,1,.19-.46.62.62,0,0,1,.45-.19Zm-3.66,1.29v7.32h3.66a3.65,3.65,0,0,0,3.65-3.66,3.45,3.45,0,0,0-1.07-2.58,3.5,3.5,0,0,0-2.58-1.08Z"/><path class="cls-4" d="M129.08,154a.64.64,0,0,1,.18-.46.61.61,0,0,1,.46-.19.64.64,0,0,1,.65.65v15.48a.64.64,0,0,1-.65.65.61.61,0,0,1-.46-.19.64.64,0,0,1-.18-.46Z"/><path class="cls-4" d="M142.71,164.06l-2.19,5.62a.74.74,0,0,1-.15.23.65.65,0,0,1-1.1-.48.72.72,0,0,1,.06-.28l6-15.38a.89.89,0,0,1,.17-.28.62.62,0,0,1,.45-.18.63.63,0,0,1,.46.19.74.74,0,0,1,.17.27l6,15.38a.72.72,0,0,1,.06.28.63.63,0,0,1-.19.46.62.62,0,0,1-.45.19.65.65,0,0,1-.45-.16.74.74,0,0,1-.16-.24l-2.18-5.62Zm6-1.29-2.74-7-2.73,7Z"/><path class="cls-4" d="M160.55,167.43a.64.64,0,0,1,.18-.46.61.61,0,0,1,.46-.19.65.65,0,0,1,.55.29c.09.13.2.27.31.42a4,4,0,0,0,1.14.91,3.76,3.76,0,0,0,1.68.39,3.52,3.52,0,0,0,2.34-.87,4.13,4.13,0,0,0,.92-1.16,3.7,3.7,0,0,0-.5-4,3.62,3.62,0,0,0-2.49-1.28,4.31,4.31,0,0,1-1.54-.45,4.11,4.11,0,0,1-1.25-1,4.41,4.41,0,0,1-.71-1.23,3.86,3.86,0,0,1-.25-1.38,4.11,4.11,0,0,1,4.1-4.14,4.11,4.11,0,0,1,3.1,1.46,4.07,4.07,0,0,1,.4.56.67.67,0,0,1,.09.36.64.64,0,0,1-.64.64.5.5,0,0,1-.43-.17c-.11-.15-.25-.33-.41-.52a2.66,2.66,0,0,0-1.9-1,2.82,2.82,0,0,0-2,.67,2.58,2.58,0,0,0-1,1.88,2.94,2.94,0,0,0,.12,1.09,2.87,2.87,0,0,0,1.39,1.64,2.94,2.94,0,0,0,1,.29,5.2,5.2,0,0,1,3.39,1.74,5.36,5.36,0,0,1,.86,1.48,4.59,4.59,0,0,1,.3,1.65,5,5,0,0,1-.49,2.31,5.22,5.22,0,0,1-1.25,1.53,4.78,4.78,0,0,1-3.17,1.18,5,5,0,0,1-3.82-1.75,5,5,0,0,1-.39-.5A.64.64,0,0,1,160.55,167.43Z"/><rect class="cls-4" x="124.41" y="102.17" width="4.46" height="41.21"/><path class="cls-4" d="M169,127.28a10.25,10.25,0,0,0-2.88-3.23,17.1,17.1,0,0,0-4-2.13c-1.44-.55-2.94-1.09-4.46-1.59s-2.65-.94-3.74-1.41a12.26,12.26,0,0,1-2.74-1.59,6,6,0,0,1-1.67-2,7.18,7.18,0,0,1,1.32-7.7c1.28-1.21,3.47-1.82,6.51-1.82a21.12,21.12,0,0,1,4.51.51,18.37,18.37,0,0,1,4,1.34l.84.41,1.35-3.63-.67-.35a23.6,23.6,0,0,0-4.35-1.65,21.34,21.34,0,0,0-5.77-.73,18,18,0,0,0-5.7.81,11.1,11.1,0,0,0-4,2.26,8.6,8.6,0,0,0-2.31,3.44,12,12,0,0,0-.7,4.07,10.06,10.06,0,0,0,1.1,4.83,10.86,10.86,0,0,0,2.8,3.37,16.31,16.31,0,0,0,3.77,2.23c1.34.57,2.7,1.08,4.05,1.52l3.76,1.23a12.85,12.85,0,0,1,3,1.4,6,6,0,0,1,2,2,6.5,6.5,0,0,1,.71,3.27,7.94,7.94,0,0,1-.68,3.44,6.43,6.43,0,0,1-1.84,2.31,8,8,0,0,1-2.89,1.37,14.9,14.9,0,0,1-3.83.47,21,21,0,0,1-5.58-.64,23.86,23.86,0,0,1-4.25-1.61l-.86-.43-1.39,3.86.62.35a20.82,20.82,0,0,0,4.49,1.81,26,26,0,0,0,6.95.77,19,19,0,0,0,5.46-.74,12.25,12.25,0,0,0,4.31-2.24,10.15,10.15,0,0,0,2.81-3.71,12.17,12.17,0,0,0,1-5A9.83,9.83,0,0,0,169,127.28Z"/><path class="cls-4" d="M60.78,126.3a12.94,12.94,0,0,0,6.56-3.67,11.59,11.59,0,0,0,3-8.23,13.2,13.2,0,0,0-.91-4.95,10.77,10.77,0,0,0-2.67-3.91,12.08,12.08,0,0,0-4.25-2.5,17,17,0,0,0-5.62-.87H42.21v41.21h4.46V126.79h9.4l10.08,16.59h5Zm-14.11-3.67v-16.3H56.84c3,0,5.28.72,6.77,2.14a7.72,7.72,0,0,1,2.23,5.92,7.57,7.57,0,0,1-2.44,6,10.24,10.24,0,0,1-7,2.19Z"/><polygon class="cls-4" points="87.52 124.27 106.58 124.27 106.58 120.11 87.52 120.11 87.52 106.33 107.87 106.33 107.87 102.17 83.07 102.17 83.07 143.38 108.22 143.38 108.22 139.28 87.52 139.28 87.52 124.27"/><polygon class="cls-4" points="30.09 102.17 24.41 102.17 7.04 120.44 7.04 122.62 25.15 143.38 30.68 143.38 11.67 121.51 30.09 102.17"/><rect class="cls-4" x="0.06" y="102.17" width="4.46" height="41.21"/></symbol><symbol id="gray_scale" data-name="gray scale" viewBox="0 0 170.08 170.08"><path class="cls-5" d="M74.91,58.4,57.1,76.25a43.17,43.17,0,0,0,25.52,10.6V61.6A18.24,18.24,0,0,1,74.91,58.4Z"/><path class="cls-5" d="M88.6,61.6V86.86a43.17,43.17,0,0,0,25.52-10.6L96.32,58.4A18.24,18.24,0,0,1,88.6,61.6Z"/><path class="cls-5" d="M82.62,25.26V0A43.17,43.17,0,0,0,57.1,10.6L74.91,28.46A18.24,18.24,0,0,1,82.62,25.26Z"/><path class="cls-5" d="M67.22,43.43a18.36,18.36,0,0,1,3.46-10.73L52.87,14.84a43.58,43.58,0,0,0,0,57.18L70.68,54.16A18.36,18.36,0,0,1,67.22,43.43Z"/><path class="cls-5" d="M96.32,28.46,114.13,10.6A43.17,43.17,0,0,0,88.6,0V25.26A18.24,18.24,0,0,1,96.32,28.46Z"/><path class="cls-5" d="M104,43.43a18.36,18.36,0,0,1-3.46,10.73L118.35,72a43.58,43.58,0,0,0,0-57.18L100.55,32.69A18.36,18.36,0,0,1,104,43.43Z"/><circle class="cls-2" cx="85.61" cy="43.43" r="13.03"/><path class="cls-5" d="M0,154a.64.64,0,0,1,.18-.46.61.61,0,0,1,.46-.19.63.63,0,0,1,.46.19.63.63,0,0,1,.19.46v15.48a.63.63,0,0,1-.19.46.63.63,0,0,1-.46.19.61.61,0,0,1-.46-.19.64.64,0,0,1-.18-.46Z"/><path class="cls-5" d="M11.48,169.43a.64.64,0,0,1-.18.46.61.61,0,0,1-.46.19.64.64,0,0,1-.65-.65V154a.64.64,0,0,1,.65-.65.61.61,0,0,1,.49.23l10.91,14V154a.64.64,0,0,1,.65-.65.62.62,0,0,1,.45.19.63.63,0,0,1,.19.46v15.48a.63.63,0,0,1-.19.46.67.67,0,0,1-.93,0L11.48,155.84Z"/><path class="cls-5" d="M35.57,153.3a8.39,8.39,0,0,1,0,16.78H32.12a.62.62,0,0,1-.45-.19.63.63,0,0,1-.19-.46V154a.63.63,0,0,1,.19-.46.62.62,0,0,1,.45-.19Zm0,15.49a7.1,7.1,0,0,0,0-14.2h-2.8v14.2Z"/><path class="cls-5" d="M51.93,154a.64.64,0,0,1,.65-.65.61.61,0,0,1,.46.19.64.64,0,0,1,.18.46v10.32a4.52,4.52,0,1,0,9,0V154a.64.64,0,0,1,.65-.65.62.62,0,0,1,.45.19.63.63,0,0,1,.19.46v10.32a5.81,5.81,0,0,1-9.92,4.11,5.58,5.58,0,0,1-1.7-4.11Z"/><path class="cls-5" d="M71.53,167.43a.64.64,0,0,1,.18-.46.61.61,0,0,1,.46-.19.65.65,0,0,1,.55.29c.09.13.2.27.31.42a4,4,0,0,0,1.14.91,3.76,3.76,0,0,0,1.68.39,3.52,3.52,0,0,0,2.34-.87,4.13,4.13,0,0,0,.92-1.16,3.7,3.7,0,0,0-.5-4,3.62,3.62,0,0,0-2.49-1.28A4.31,4.31,0,0,1,74.6,161a4.11,4.11,0,0,1-1.25-1,4.41,4.41,0,0,1-.71-1.23,3.86,3.86,0,0,1-.25-1.38,4.11,4.11,0,0,1,4.1-4.14,4.11,4.11,0,0,1,3.1,1.46,4.07,4.07,0,0,1,.4.56.67.67,0,0,1,.09.36.64.64,0,0,1-.64.64.5.5,0,0,1-.43-.17c-.11-.15-.25-.33-.41-.52a2.66,2.66,0,0,0-1.9-1,2.82,2.82,0,0,0-2,.67,2.58,2.58,0,0,0-1,1.88,2.94,2.94,0,0,0,.12,1.09,2.87,2.87,0,0,0,1.39,1.64,2.94,2.94,0,0,0,1,.29,5.2,5.2,0,0,1,3.39,1.74,5.36,5.36,0,0,1,.86,1.48,4.59,4.59,0,0,1,.3,1.65,5,5,0,0,1-.49,2.31A5.22,5.22,0,0,1,79,168.89a4.78,4.78,0,0,1-3.17,1.18,5,5,0,0,1-3.82-1.75,5,5,0,0,1-.39-.5A.64.64,0,0,1,71.53,167.43Z"/><path class="cls-5" d="M89.48,154.59a.65.65,0,0,1-.64-.64.63.63,0,0,1,.19-.46.62.62,0,0,1,.45-.19h11.19a.64.64,0,0,1,.65.65.61.61,0,0,1-.19.45.62.62,0,0,1-.46.19H95.72v14.84a.64.64,0,0,1-.18.46.61.61,0,0,1-.46.19.64.64,0,0,1-.65-.65V154.59Z"/><path class="cls-5" d="M114.23,153.3a5,5,0,0,1,3.5,8.44,5.63,5.63,0,0,1-1.68,1.13l3.87,6.21a.6.6,0,0,1,.12.35.64.64,0,0,1-.65.65.67.67,0,0,1-.57-.35l-4.1-6.55-.49,0h-3.66v6.23a.64.64,0,0,1-.65.65.62.62,0,0,1-.45-.19.63.63,0,0,1-.19-.46V154a.63.63,0,0,1,.19-.46.62.62,0,0,1,.45-.19Zm-3.66,1.29v7.32h3.66a3.65,3.65,0,0,0,3.65-3.66,3.45,3.45,0,0,0-1.07-2.58,3.5,3.5,0,0,0-2.58-1.08Z"/><path class="cls-5" d="M129.08,154a.64.64,0,0,1,.18-.46.61.61,0,0,1,.46-.19.64.64,0,0,1,.65.65v15.48a.64.64,0,0,1-.65.65.61.61,0,0,1-.46-.19.64.64,0,0,1-.18-.46Z"/><path class="cls-5" d="M142.71,164.06l-2.19,5.62a.74.74,0,0,1-.15.23.65.65,0,0,1-1.1-.48.72.72,0,0,1,.06-.28l6-15.38a.89.89,0,0,1,.17-.28.62.62,0,0,1,.45-.18.63.63,0,0,1,.46.19.74.74,0,0,1,.17.27l6,15.38a.72.72,0,0,1,.06.28.63.63,0,0,1-.19.46.62.62,0,0,1-.45.19.65.65,0,0,1-.45-.16.74.74,0,0,1-.16-.24l-2.18-5.62Zm6-1.29-2.74-7-2.73,7Z"/><path class="cls-5" d="M160.55,167.43a.64.64,0,0,1,.18-.46.61.61,0,0,1,.46-.19.65.65,0,0,1,.55.29c.09.13.2.27.31.42a4,4,0,0,0,1.14.91,3.76,3.76,0,0,0,1.68.39,3.52,3.52,0,0,0,2.34-.87,4.13,4.13,0,0,0,.92-1.16,3.7,3.7,0,0,0-.5-4,3.62,3.62,0,0,0-2.49-1.28,4.31,4.31,0,0,1-1.54-.45,4.11,4.11,0,0,1-1.25-1,4.41,4.41,0,0,1-.71-1.23,3.86,3.86,0,0,1-.25-1.38,4.11,4.11,0,0,1,4.1-4.14,4.11,4.11,0,0,1,3.1,1.46,4.07,4.07,0,0,1,.4.56.67.67,0,0,1,.09.36.64.64,0,0,1-.64.64.5.5,0,0,1-.43-.17c-.11-.15-.25-.33-.41-.52a2.66,2.66,0,0,0-1.9-1,2.82,2.82,0,0,0-2,.67,2.58,2.58,0,0,0-1,1.88,2.94,2.94,0,0,0,.12,1.09,2.87,2.87,0,0,0,1.39,1.64,2.94,2.94,0,0,0,1,.29,5.2,5.2,0,0,1,3.39,1.74,5.36,5.36,0,0,1,.86,1.48,4.59,4.59,0,0,1,.3,1.65,5,5,0,0,1-.49,2.31,5.22,5.22,0,0,1-1.25,1.53,4.78,4.78,0,0,1-3.17,1.18,5,5,0,0,1-3.82-1.75,5,5,0,0,1-.39-.5A.64.64,0,0,1,160.55,167.43Z"/><rect class="cls-3" x="124.41" y="102.17" width="4.46" height="41.21"/><path class="cls-3" d="M169,127.28a10.25,10.25,0,0,0-2.88-3.23,17.1,17.1,0,0,0-4-2.13c-1.44-.55-2.94-1.09-4.46-1.59s-2.65-.94-3.74-1.41a12.26,12.26,0,0,1-2.74-1.59,6,6,0,0,1-1.67-2,7.18,7.18,0,0,1,1.32-7.7c1.28-1.21,3.47-1.82,6.51-1.82a21.12,21.12,0,0,1,4.51.51,18.37,18.37,0,0,1,4,1.34l.84.41,1.35-3.63-.67-.35a23.6,23.6,0,0,0-4.35-1.65,21.34,21.34,0,0,0-5.77-.73,18,18,0,0,0-5.7.81,11.1,11.1,0,0,0-4,2.26,8.6,8.6,0,0,0-2.31,3.44,12,12,0,0,0-.7,4.07,10.06,10.06,0,0,0,1.1,4.83,10.86,10.86,0,0,0,2.8,3.37,16.31,16.31,0,0,0,3.77,2.23c1.34.57,2.7,1.08,4.05,1.52l3.76,1.23a12.85,12.85,0,0,1,3,1.4,6,6,0,0,1,2,2,6.5,6.5,0,0,1,.71,3.27,7.94,7.94,0,0,1-.68,3.44,6.43,6.43,0,0,1-1.84,2.31,8,8,0,0,1-2.89,1.37,14.9,14.9,0,0,1-3.83.47,21,21,0,0,1-5.58-.64,23.86,23.86,0,0,1-4.25-1.61l-.86-.43-1.39,3.86.62.35a20.82,20.82,0,0,0,4.49,1.81,26,26,0,0,0,6.95.77,19,19,0,0,0,5.46-.74,12.25,12.25,0,0,0,4.31-2.24,10.15,10.15,0,0,0,2.81-3.71,12.17,12.17,0,0,0,1-5A9.83,9.83,0,0,0,169,127.28Z"/><path class="cls-3" d="M60.78,126.3a12.94,12.94,0,0,0,6.56-3.67,11.59,11.59,0,0,0,3-8.23,13.2,13.2,0,0,0-.91-4.95,10.77,10.77,0,0,0-2.67-3.91,12.08,12.08,0,0,0-4.25-2.5,17,17,0,0,0-5.62-.87H42.21v41.21h4.46V126.79h9.4l10.08,16.59h5Zm-14.11-3.67v-16.3H56.84c3,0,5.28.72,6.77,2.14a7.72,7.72,0,0,1,2.23,5.92,7.57,7.57,0,0,1-2.44,6,10.24,10.24,0,0,1-7,2.19Z"/><polygon class="cls-3" points="87.52 124.27 106.58 124.27 106.58 120.11 87.52 120.11 87.52 106.33 107.87 106.33 107.87 102.17 83.07 102.17 83.07 143.38 108.22 143.38 108.22 139.28 87.52 139.28 87.52 124.27"/><polygon class="cls-3" points="30.09 102.17 24.41 102.17 7.04 120.44 7.04 122.62 25.15 143.38 30.68 143.38 11.67 121.51 30.09 102.17"/><rect class="cls-3" x="0.06" y="102.17" width="4.46" height="41.21"/></symbol><symbol id="negative" data-name="negative" viewBox="0 0 170.08 170.08"><path class="cls-6" d="M74.91,58.4,57.1,76.25a43.17,43.17,0,0,0,25.52,10.6V61.6A18.24,18.24,0,0,1,74.91,58.4Z"/><path class="cls-6" d="M88.6,61.6V86.86a43.17,43.17,0,0,0,25.52-10.6L96.32,58.4A18.24,18.24,0,0,1,88.6,61.6Z"/><path class="cls-6" d="M82.62,25.26V0A43.17,43.17,0,0,0,57.1,10.6L74.91,28.46A18.24,18.24,0,0,1,82.62,25.26Z"/><path class="cls-6" d="M67.22,43.43a18.36,18.36,0,0,1,3.46-10.73L52.87,14.84a43.58,43.58,0,0,0,0,57.18L70.68,54.16A18.36,18.36,0,0,1,67.22,43.43Z"/><path class="cls-6" d="M96.32,28.46,114.13,10.6A43.17,43.17,0,0,0,88.6,0V25.26A18.24,18.24,0,0,1,96.32,28.46Z"/><path class="cls-6" d="M104,43.43a18.36,18.36,0,0,1-3.46,10.73L118.35,72a43.58,43.58,0,0,0,0-57.18L100.55,32.69A18.36,18.36,0,0,1,104,43.43Z"/><circle class="cls-6" cx="85.61" cy="43.43" r="13.03"/><path class="cls-6" d="M0,154a.64.64,0,0,1,.18-.46.61.61,0,0,1,.46-.19.63.63,0,0,1,.46.19.63.63,0,0,1,.19.46v15.48a.63.63,0,0,1-.19.46.63.63,0,0,1-.46.19.61.61,0,0,1-.46-.19.64.64,0,0,1-.18-.46Z"/><path class="cls-6" d="M11.48,169.43a.64.64,0,0,1-.18.46.61.61,0,0,1-.46.19.64.64,0,0,1-.65-.65V154a.64.64,0,0,1,.65-.65.61.61,0,0,1,.49.23l10.91,14V154a.64.64,0,0,1,.65-.65.62.62,0,0,1,.45.19.63.63,0,0,1,.19.46v15.48a.63.63,0,0,1-.19.46.67.67,0,0,1-.93,0L11.48,155.84Z"/><path class="cls-6" d="M35.57,153.3a8.39,8.39,0,0,1,0,16.78H32.12a.62.62,0,0,1-.45-.19.63.63,0,0,1-.19-.46V154a.63.63,0,0,1,.19-.46.62.62,0,0,1,.45-.19Zm0,15.49a7.1,7.1,0,0,0,0-14.2h-2.8v14.2Z"/><path class="cls-6" d="M51.93,154a.64.64,0,0,1,.65-.65.61.61,0,0,1,.46.19.64.64,0,0,1,.18.46v10.32a4.52,4.52,0,1,0,9,0V154a.64.64,0,0,1,.65-.65.62.62,0,0,1,.45.19.63.63,0,0,1,.19.46v10.32a5.81,5.81,0,0,1-9.92,4.11,5.58,5.58,0,0,1-1.7-4.11Z"/><path class="cls-6" d="M71.53,167.43a.64.64,0,0,1,.18-.46.61.61,0,0,1,.46-.19.65.65,0,0,1,.55.29c.09.13.2.27.31.42a4,4,0,0,0,1.14.91,3.76,3.76,0,0,0,1.68.39,3.52,3.52,0,0,0,2.34-.87,4.13,4.13,0,0,0,.92-1.16,3.7,3.7,0,0,0-.5-4,3.62,3.62,0,0,0-2.49-1.28A4.31,4.31,0,0,1,74.6,161a4.11,4.11,0,0,1-1.25-1,4.41,4.41,0,0,1-.71-1.23,3.86,3.86,0,0,1-.25-1.38,4.11,4.11,0,0,1,4.1-4.14,4.11,4.11,0,0,1,3.1,1.46,4.07,4.07,0,0,1,.4.56.67.67,0,0,1,.09.36.64.64,0,0,1-.64.64.5.5,0,0,1-.43-.17c-.11-.15-.25-.33-.41-.52a2.66,2.66,0,0,0-1.9-1,2.82,2.82,0,0,0-2,.67,2.58,2.58,0,0,0-1,1.88,2.94,2.94,0,0,0,.12,1.09,2.87,2.87,0,0,0,1.39,1.64,2.94,2.94,0,0,0,1,.29,5.2,5.2,0,0,1,3.39,1.74,5.36,5.36,0,0,1,.86,1.48,4.59,4.59,0,0,1,.3,1.65,5,5,0,0,1-.49,2.31A5.22,5.22,0,0,1,79,168.89a4.78,4.78,0,0,1-3.17,1.18,5,5,0,0,1-3.82-1.75,5,5,0,0,1-.39-.5A.64.64,0,0,1,71.53,167.43Z"/><path class="cls-6" d="M89.48,154.59a.65.65,0,0,1-.64-.64.63.63,0,0,1,.19-.46.62.62,0,0,1,.45-.19h11.19a.64.64,0,0,1,.65.65.61.61,0,0,1-.19.45.62.62,0,0,1-.46.19H95.72v14.84a.64.64,0,0,1-.18.46.61.61,0,0,1-.46.19.64.64,0,0,1-.65-.65V154.59Z"/><path class="cls-6" d="M114.23,153.3a5,5,0,0,1,3.5,8.44,5.63,5.63,0,0,1-1.68,1.13l3.87,6.21a.6.6,0,0,1,.12.35.64.64,0,0,1-.65.65.67.67,0,0,1-.57-.35l-4.1-6.55-.49,0h-3.66v6.23a.64.64,0,0,1-.65.65.62.62,0,0,1-.45-.19.63.63,0,0,1-.19-.46V154a.63.63,0,0,1,.19-.46.62.62,0,0,1,.45-.19Zm-3.66,1.29v7.32h3.66a3.65,3.65,0,0,0,3.65-3.66,3.45,3.45,0,0,0-1.07-2.58,3.5,3.5,0,0,0-2.58-1.08Z"/><path class="cls-6" d="M129.08,154a.64.64,0,0,1,.18-.46.61.61,0,0,1,.46-.19.64.64,0,0,1,.65.65v15.48a.64.64,0,0,1-.65.65.61.61,0,0,1-.46-.19.64.64,0,0,1-.18-.46Z"/><path class="cls-6" d="M142.71,164.06l-2.19,5.62a.74.74,0,0,1-.15.23.65.65,0,0,1-1.1-.48.72.72,0,0,1,.06-.28l6-15.38a.89.89,0,0,1,.17-.28.62.62,0,0,1,.45-.18.63.63,0,0,1,.46.19.74.74,0,0,1,.17.27l6,15.38a.72.72,0,0,1,.06.28.63.63,0,0,1-.19.46.62.62,0,0,1-.45.19.65.65,0,0,1-.45-.16.74.74,0,0,1-.16-.24l-2.18-5.62Zm6-1.29-2.74-7-2.73,7Z"/><path class="cls-6" d="M160.55,167.43a.64.64,0,0,1,.18-.46.61.61,0,0,1,.46-.19.65.65,0,0,1,.55.29c.09.13.2.27.31.42a4,4,0,0,0,1.14.91,3.76,3.76,0,0,0,1.68.39,3.52,3.52,0,0,0,2.34-.87,4.13,4.13,0,0,0,.92-1.16,3.7,3.7,0,0,0-.5-4,3.62,3.62,0,0,0-2.49-1.28,4.31,4.31,0,0,1-1.54-.45,4.11,4.11,0,0,1-1.25-1,4.41,4.41,0,0,1-.71-1.23,3.86,3.86,0,0,1-.25-1.38,4.11,4.11,0,0,1,4.1-4.14,4.11,4.11,0,0,1,3.1,1.46,4.07,4.07,0,0,1,.4.56.67.67,0,0,1,.09.36.64.64,0,0,1-.64.64.5.5,0,0,1-.43-.17c-.11-.15-.25-.33-.41-.52a2.66,2.66,0,0,0-1.9-1,2.82,2.82,0,0,0-2,.67,2.58,2.58,0,0,0-1,1.88,2.94,2.94,0,0,0,.12,1.09,2.87,2.87,0,0,0,1.39,1.64,2.94,2.94,0,0,0,1,.29,5.2,5.2,0,0,1,3.39,1.74,5.36,5.36,0,0,1,.86,1.48,4.59,4.59,0,0,1,.3,1.65,5,5,0,0,1-.49,2.31,5.22,5.22,0,0,1-1.25,1.53,4.78,4.78,0,0,1-3.17,1.18,5,5,0,0,1-3.82-1.75,5,5,0,0,1-.39-.5A.64.64,0,0,1,160.55,167.43Z"/><rect class="cls-6" x="124.41" y="102.17" width="4.46" height="41.21"/><path class="cls-6" d="M169,127.28a10.25,10.25,0,0,0-2.88-3.23,17.1,17.1,0,0,0-4-2.13c-1.44-.55-2.94-1.09-4.46-1.59s-2.65-.94-3.74-1.41a12.26,12.26,0,0,1-2.74-1.59,6,6,0,0,1-1.67-2,7.18,7.18,0,0,1,1.32-7.7c1.28-1.21,3.47-1.82,6.51-1.82a21.12,21.12,0,0,1,4.51.51,18.37,18.37,0,0,1,4,1.34l.84.41,1.35-3.63-.67-.35a23.6,23.6,0,0,0-4.35-1.65,21.34,21.34,0,0,0-5.77-.73,18,18,0,0,0-5.7.81,11.1,11.1,0,0,0-4,2.26,8.6,8.6,0,0,0-2.31,3.44,12,12,0,0,0-.7,4.07,10.06,10.06,0,0,0,1.1,4.83,10.86,10.86,0,0,0,2.8,3.37,16.31,16.31,0,0,0,3.77,2.23c1.34.57,2.7,1.08,4.05,1.52l3.76,1.23a12.85,12.85,0,0,1,3,1.4,6,6,0,0,1,2,2,6.5,6.5,0,0,1,.71,3.27,7.94,7.94,0,0,1-.68,3.44,6.43,6.43,0,0,1-1.84,2.31,8,8,0,0,1-2.89,1.37,14.9,14.9,0,0,1-3.83.47,21,21,0,0,1-5.58-.64,23.86,23.86,0,0,1-4.25-1.61l-.86-.43-1.39,3.86.62.35a20.82,20.82,0,0,0,4.49,1.81,26,26,0,0,0,6.95.77,19,19,0,0,0,5.46-.74,12.25,12.25,0,0,0,4.31-2.24,10.15,10.15,0,0,0,2.81-3.71,12.17,12.17,0,0,0,1-5A9.83,9.83,0,0,0,169,127.28Z"/><path class="cls-6" d="M60.78,126.3a12.94,12.94,0,0,0,6.56-3.67,11.59,11.59,0,0,0,3-8.23,13.2,13.2,0,0,0-.91-4.95,10.77,10.77,0,0,0-2.67-3.91,12.08,12.08,0,0,0-4.25-2.5,17,17,0,0,0-5.62-.87H42.21v41.21h4.46V126.79h9.4l10.08,16.59h5Zm-14.11-3.67v-16.3H56.84c3,0,5.28.72,6.77,2.14a7.72,7.72,0,0,1,2.23,5.92,7.57,7.57,0,0,1-2.44,6,10.24,10.24,0,0,1-7,2.19Z"/><polygon class="cls-6" points="87.52 124.27 106.58 124.27 106.58 120.11 87.52 120.11 87.52 106.33 107.87 106.33 107.87 102.17 83.07 102.17 83.07 143.38 108.22 143.38 108.22 139.28 87.52 139.28 87.52 124.27"/><polygon class="cls-6" points="30.09 102.17 24.41 102.17 7.04 120.44 7.04 122.62 25.15 143.38 30.68 143.38 11.67 121.51 30.09 102.17"/><rect class="cls-6" x="0.06" y="102.17" width="4.46" height="41.21"/></symbol></defs><title>Kreis2017 logo</title><use width="170.08" height="170.08" transform="translate(192.61 28.98) scale(1.33)" xlink:href="#Full_color"/><use width="170.08" height="170.08" transform="translate(88.6 302.35)" xlink:href="#color_solid"/><use width="170.08" height="170.08" transform="translate(88.6 555.09)" xlink:href="#black"/><use width="170.08" height="170.08" transform="translate(364.58 302.35)" xlink:href="#gray_scale"/><rect class="cls-1" x="366.75" y="557.25" width="165.75" height="165.75"/><path class="cls-1" d="M527.5,562.25V718H371.75V562.25H527.5m10-10H361.75V728H537.5V552.25Z"/><text class="cls-7" transform="translate(252.57 277.77)">FUL<tspan class="cls-8" x="32.29" y="0">L</tspan><tspan x="41.51" y="0" xml:space="preserve"> COLOR</tspan></text><text class="cls-7" transform="translate(141.35 494.59)">SOLIDO<tspan x="-42.3" y="16.8">C10 M100</tspan><tspan class="cls-9" x="37.86" y="16.8"> </tspan><tspan x="43.45" y="16.8">Y50 K0 </tspan><tspan x="-24.12" y="33.6">RGB#DA1C5C</tspan></text><text class="cls-7" transform="translate(378.03 494.6)">ESCAL<tspan class="cls-10" x="55.64" y="0">A</tspan><tspan class="cls-11" x="66.16" y="0" xml:space="preserve"> DE GRIS</tspan><tspan x="23.53" y="16.8">K65% K80%</tspan></text><text class="cls-7" transform="translate(143.1 745.05)">NEGRO<tspan x="3.1" y="16.8">K100%</tspan></text><text class="cls-7" transform="translate(406.18 745.05)">NEG<tspan class="cls-12" x="36.18" y="0">A</tspan><tspan x="46.43" y="0">TIVO</tspan><tspan x="25.74" y="16.8">K0%</tspan></text><use width="170.08" height="170.08" transform="translate(364.58 555.09)" xlink:href="#negative"/></svg>